<svg id="svg" version="1.1" xmlns="http://www.w3.org/2000/svg" xmlns:xlink="http://www.w3.org/1999/xlink" width="400" height="400" viewBox="0, 0, 400,400"><g id="svgg"><path id="path0" d="M198.419 29.817 C 197.879 30.113,197.159 30.714,196.819 31.153 C 196.460 31.615,195.611 32.003,194.800 32.075 C 193.544 32.187,193.387 32.333,193.275 33.500 L 193.149 34.800 190.855 34.800 C 188.372 34.800,187.600 35.246,187.600 36.680 C 187.600 37.522,187.423 37.601,185.500 37.606 C 183.013 37.613,182.554 37.849,182.188 39.304 C 181.952 40.246,181.709 40.401,180.457 40.406 C 178.530 40.414,177.030 41.210,176.872 42.310 C 176.765 43.057,176.492 43.200,175.172 43.200 C 174.307 43.200,173.600 43.380,173.600 43.600 C 173.600 43.820,173.326 44.000,172.991 44.000 C 172.657 44.000,172.178 44.450,171.927 45.000 C 171.560 45.807,171.183 46.000,169.979 46.000 C 168.448 46.000,168.000 46.461,168.000 48.033 C 168.000 48.709,167.697 48.800,165.445 48.800 L 162.889 48.800 162.630 50.181 L 162.371 51.563 159.885 51.681 C 157.518 51.794,157.394 51.851,157.275 52.879 C 157.165 53.837,156.939 53.987,155.275 54.213 C 152.420 54.600,152.021 54.778,151.772 55.770 C 151.590 56.493,151.075 56.798,149.329 57.217 C 147.745 57.597,147.001 57.999,146.714 58.630 C 146.438 59.235,145.823 59.590,144.756 59.761 C 143.900 59.897,143.200 60.187,143.200 60.405 C 143.200 61.157,141.596 62.400,140.626 62.400 C 138.793 62.400,137.600 63.106,137.600 64.190 C 137.600 65.070,137.427 65.200,136.250 65.200 C 133.485 65.200,132.373 65.635,132.139 66.807 C 131.936 67.818,131.727 67.928,129.531 68.176 C 127.376 68.420,127.104 68.557,126.750 69.572 C 126.418 70.524,126.073 70.736,124.508 70.951 C 122.609 71.211,121.200 72.110,121.200 73.062 C 121.200 73.411,120.704 73.600,119.790 73.600 C 118.689 73.600,118.304 73.800,118.032 74.516 C 117.511 75.887,116.774 76.331,114.792 76.472 C 113.163 76.588,112.966 76.717,112.622 77.883 C 112.256 79.124,112.166 79.170,109.822 79.283 C 107.410 79.400,107.399 79.405,107.275 80.700 C 107.152 81.977,107.113 82.000,105.148 82.000 C 102.647 82.000,101.600 82.535,101.600 83.814 C 101.600 84.695,101.432 84.800,100.026 84.800 C 97.814 84.800,96.463 85.410,96.180 86.537 C 95.980 87.334,95.625 87.538,94.153 87.704 C 92.331 87.909,90.800 88.895,90.800 89.862 C 90.800 90.223,90.274 90.400,89.200 90.400 C 88.138 90.400,87.600 90.578,87.600 90.930 C 87.600 91.993,85.831 93.145,84.000 93.273 C 82.298 93.393,82.193 93.470,82.076 94.682 C 81.953 95.957,81.941 95.964,79.476 96.082 C 77.065 96.197,76.990 96.234,76.617 97.500 C 76.249 98.750,76.155 98.800,74.166 98.800 C 72.041 98.800,71.400 99.181,71.139 100.600 C 71.046 101.106,70.626 101.440,69.996 101.508 C 66.930 101.840,66.390 102.060,65.791 103.218 C 65.335 104.098,64.895 104.400,64.065 104.400 C 63.299 104.400,62.682 104.763,62.093 105.560 C 61.421 106.469,60.803 106.780,59.241 106.994 C 57.467 107.238,57.233 107.385,57.123 108.324 C 57.010 109.293,56.788 109.412,54.400 109.789 C 52.023 110.165,51.790 110.289,51.679 111.240 C 51.568 112.201,51.357 112.306,48.879 112.640 L 46.200 113.000 46.077 114.700 C 45.954 116.395,45.958 116.400,47.334 116.400 C 48.452 116.400,48.758 116.580,48.951 117.348 C 49.117 118.008,49.798 118.559,51.185 119.155 C 52.282 119.627,53.976 120.551,54.948 121.207 C 55.920 121.863,56.946 122.400,57.227 122.400 C 57.507 122.400,58.060 122.693,58.456 123.050 C 59.170 123.697,62.553 125.577,66.000 127.244 C 66.990 127.722,68.552 128.628,69.472 129.257 C 70.392 129.886,71.340 130.400,71.580 130.400 C 71.820 130.400,72.777 130.889,73.708 131.486 C 74.639 132.083,76.210 132.981,77.200 133.481 C 78.190 133.981,80.260 135.109,81.800 135.988 C 83.340 136.867,85.725 138.146,87.100 138.831 C 88.475 139.515,89.600 140.199,89.600 140.350 C 89.600 140.500,90.514 140.979,91.632 141.412 C 92.749 141.845,93.975 142.470,94.355 142.800 C 95.252 143.578,97.541 144.800,98.101 144.800 C 98.341 144.800,98.838 145.072,99.206 145.406 C 99.574 145.739,100.938 146.575,102.238 147.264 C 103.537 147.953,105.680 149.100,107.000 149.811 C 108.320 150.523,110.480 151.683,111.800 152.389 C 113.120 153.096,114.406 153.844,114.658 154.051 C 114.909 154.258,116.169 154.970,117.458 155.634 C 120.926 157.420,123.273 158.748,124.420 159.572 C 124.980 159.975,126.420 160.799,127.620 161.404 C 128.819 162.008,130.250 162.816,130.800 163.199 C 131.350 163.582,132.250 164.030,132.800 164.195 C 133.350 164.360,134.070 164.729,134.400 165.016 C 134.730 165.302,135.990 166.029,137.200 166.631 C 138.410 167.233,139.490 167.847,139.600 167.996 C 139.710 168.145,140.790 168.767,142.000 169.378 C 145.924 171.361,148.571 172.808,150.000 173.752 C 150.770 174.260,152.210 175.070,153.200 175.552 C 155.679 176.757,159.042 178.602,160.329 179.462 C 160.918 179.856,162.210 180.588,163.200 181.089 C 164.190 181.589,166.170 182.649,167.600 183.444 C 169.030 184.239,171.280 185.436,172.600 186.103 C 173.920 186.771,175.090 187.435,175.200 187.578 C 175.397 187.835,178.005 189.257,182.469 191.541 C 183.717 192.179,185.247 193.060,185.869 193.498 C 186.491 193.936,187.422 194.426,187.938 194.586 C 188.453 194.747,189.649 195.400,190.596 196.039 C 191.542 196.677,192.480 197.200,192.680 197.200 C 192.880 197.200,193.896 197.741,194.939 198.402 C 195.982 199.064,197.897 200.051,199.194 200.598 L 201.553 201.591 203.877 200.723 C 205.155 200.246,206.718 199.499,207.351 199.064 C 207.984 198.629,209.514 197.738,210.751 197.085 C 217.850 193.335,222.488 190.795,223.037 190.356 C 223.277 190.164,224.537 189.446,225.837 188.761 C 228.243 187.493,230.403 186.319,235.400 183.563 C 236.940 182.714,239.221 181.497,240.469 180.859 C 241.717 180.221,243.247 179.356,243.869 178.936 C 244.491 178.517,245.630 177.859,246.400 177.475 C 247.170 177.091,249.060 176.070,250.600 175.206 C 252.140 174.342,254.210 173.246,255.200 172.770 C 256.190 172.293,257.540 171.502,258.200 171.012 C 258.860 170.521,260.210 169.737,261.200 169.269 C 262.190 168.801,264.170 167.758,265.600 166.951 C 267.030 166.144,269.370 164.876,270.800 164.132 C 273.891 162.525,277.676 160.368,278.448 159.776 C 278.752 159.543,279.810 159.011,280.800 158.594 C 281.790 158.177,283.090 157.438,283.690 156.952 C 284.289 156.466,285.459 155.851,286.290 155.584 C 287.120 155.317,288.089 154.847,288.442 154.540 C 288.795 154.232,290.235 153.381,291.642 152.649 C 293.049 151.917,295.190 150.772,296.400 150.106 C 297.610 149.440,299.680 148.317,301.000 147.610 C 302.320 146.904,303.606 146.156,303.858 145.949 C 304.109 145.742,305.369 145.028,306.658 144.362 C 309.151 143.073,312.888 141.033,316.681 138.890 C 317.956 138.169,320.350 136.843,322.000 135.942 C 326.657 133.401,328.378 132.457,331.400 130.790 C 332.940 129.941,335.254 128.702,336.542 128.037 C 337.831 127.372,339.091 126.658,339.342 126.451 C 339.866 126.020,343.650 123.957,346.600 122.495 C 347.700 121.950,349.173 121.075,349.873 120.552 C 350.574 120.028,351.404 119.600,351.719 119.600 C 352.034 119.600,352.750 119.240,353.309 118.800 C 353.869 118.360,354.629 118.000,354.999 118.000 C 355.369 118.000,355.986 117.611,356.371 117.136 C 357.184 116.133,357.717 116.347,358.875 118.144 C 359.321 118.835,359.555 119.040,359.395 118.600 C 359.235 118.160,359.096 117.583,359.086 117.318 C 359.075 117.052,358.937 116.915,358.779 117.013 C 358.351 117.278,357.559 116.180,357.903 115.799 C 358.067 115.620,357.885 115.586,357.500 115.724 C 356.921 115.931,356.800 115.739,356.800 114.611 C 356.800 112.942,356.672 112.858,353.634 112.540 C 351.304 112.297,351.200 112.239,351.200 111.181 C 351.200 110.158,351.051 110.055,349.204 109.801 C 347.702 109.594,346.973 109.246,346.253 108.390 C 345.703 107.737,344.718 107.146,343.931 106.998 C 343.078 106.838,342.421 106.419,342.182 105.881 C 341.828 105.083,341.198 104.812,338.300 104.212 C 337.695 104.087,337.200 103.731,337.200 103.421 C 337.200 102.291,335.979 101.600,333.983 101.600 C 332.107 101.600,332.008 101.544,331.688 100.300 C 331.359 99.028,331.299 98.997,328.876 98.881 C 326.766 98.779,326.400 98.651,326.400 98.014 C 326.400 96.258,326.014 96.000,323.383 96.000 L 320.851 96.000 320.725 94.700 C 320.608 93.486,320.491 93.392,318.941 93.279 C 317.671 93.186,317.233 92.969,317.071 92.349 C 316.955 91.905,316.486 91.443,316.030 91.324 C 315.573 91.204,315.200 90.948,315.200 90.753 C 315.200 90.559,314.566 90.400,313.790 90.400 C 312.652 90.400,312.306 90.206,311.997 89.393 C 311.562 88.248,310.181 87.600,308.174 87.600 C 307.084 87.600,306.800 87.441,306.800 86.829 C 306.800 85.450,305.701 84.800,303.371 84.800 C 301.243 84.800,301.200 84.777,301.200 83.643 C 301.200 82.281,300.657 82.000,298.025 82.000 C 296.214 82.000,296.097 81.933,295.745 80.700 C 295.403 79.500,295.221 79.385,293.393 79.200 C 291.697 79.029,291.295 78.815,290.605 77.715 C 289.976 76.711,289.519 76.427,288.514 76.415 C 287.650 76.405,287.088 76.139,286.802 75.604 C 286.241 74.556,284.342 73.600,282.820 73.600 C 281.893 73.600,281.600 73.419,281.600 72.849 C 281.600 71.736,280.723 71.201,278.463 70.933 C 276.720 70.726,276.389 70.543,276.062 69.605 C 275.670 68.482,274.435 68.000,271.950 68.000 C 270.987 68.000,270.800 67.836,270.800 66.990 C 270.800 65.773,269.576 65.200,266.974 65.200 C 265.286 65.200,265.200 65.144,265.200 64.047 C 265.200 62.858,264.488 62.418,262.543 62.405 C 262.071 62.402,261.582 62.131,261.456 61.802 C 261.139 60.975,258.792 59.603,257.690 59.601 C 257.102 59.601,256.653 59.265,256.421 58.655 C 256.008 57.569,255.605 57.370,253.051 56.987 C 251.691 56.783,251.200 56.530,251.200 56.035 C 251.200 55.051,250.392 54.400,249.170 54.400 C 246.710 54.400,245.649 53.950,245.522 52.854 C 245.407 51.856,245.267 51.794,242.915 51.681 L 240.429 51.563 240.170 50.181 C 239.919 48.843,239.854 48.800,238.055 48.797 C 236.385 48.795,236.105 48.655,235.248 47.397 C 234.475 46.262,234.042 46.000,232.939 46.000 C 231.855 46.000,231.503 45.796,231.197 44.993 C 230.762 43.848,229.381 43.200,227.374 43.200 C 226.180 43.200,226.000 43.071,226.000 42.214 C 226.000 40.972,224.962 40.400,222.709 40.400 C 221.087 40.400,220.939 40.309,220.583 39.100 C 220.210 37.834,220.135 37.797,217.724 37.682 C 215.259 37.564,215.247 37.557,215.124 36.282 L 215.000 35.000 212.324 34.882 L 209.648 34.765 209.524 33.482 C 209.412 32.323,209.260 32.188,207.941 32.078 C 206.889 31.991,206.425 31.738,206.277 31.173 C 205.833 29.477,200.665 28.585,198.419 29.817 M359.393 163.600 C 359.393 187.470,359.441 197.235,359.500 185.300 C 359.559 173.365,359.559 153.835,359.500 141.900 C 359.441 129.965,359.393 139.730,359.393 163.600 M359.301 283.400 C 359.305 284.280,359.387 284.593,359.483 284.095 C 359.579 283.598,359.575 282.878,359.475 282.495 C 359.375 282.113,359.296 282.520,359.301 283.400 M338.220 299.153 C 338.320 299.253,338.113 299.654,337.760 300.045 C 337.159 300.708,337.186 300.747,338.166 300.642 C 338.742 300.581,339.226 300.366,339.241 300.165 C 339.256 299.964,339.455 299.575,339.683 299.300 C 339.998 298.921,339.850 298.821,339.068 298.886 C 338.501 298.933,338.120 299.053,338.220 299.153 M68.617 302.373 C 68.459 302.628,68.610 302.694,69.003 302.543 C 69.444 302.374,69.718 302.566,69.871 303.148 C 69.993 303.617,70.247 304.000,70.434 304.000 C 70.621 304.000,70.625 303.595,70.442 303.100 C 70.081 302.122,69.030 301.704,68.617 302.373 M333.699 302.200 C 333.953 302.668,333.001 303.667,332.643 303.309 C 332.509 303.176,332.400 303.277,332.400 303.533 C 332.400 304.192,333.145 304.112,333.883 303.374 C 334.390 302.868,334.411 302.658,333.996 302.274 C 333.713 302.013,333.580 301.980,333.699 302.200 M312.880 312.880 C 312.616 313.144,312.400 313.669,312.400 314.047 C 312.400 314.424,312.175 314.824,311.900 314.935 C 311.606 315.054,311.582 315.150,311.841 315.168 C 312.266 315.199,314.800 312.997,314.800 312.597 C 314.800 312.200,313.345 312.415,312.880 312.880 M93.793 316.006 C 93.894 317.372,94.708 317.879,95.363 316.983 C 95.938 316.197,95.830 315.411,95.200 315.800 C 95.010 315.917,94.742 315.830,94.604 315.607 C 94.184 314.927,93.730 315.151,93.793 316.006 M308.105 316.166 C 307.643 316.697,307.367 317.234,307.493 317.360 C 307.618 317.485,307.964 317.275,308.261 316.894 C 308.764 316.248,308.783 316.253,308.533 316.966 C 308.343 317.507,308.406 317.644,308.748 317.432 C 309.028 317.259,309.123 316.788,308.973 316.316 C 308.801 315.772,308.862 315.591,309.157 315.774 C 309.401 315.924,309.600 315.857,309.600 315.624 C 309.600 314.923,308.994 315.142,308.105 316.166 M95.148 316.662 C 94.907 316.953,94.547 317.091,94.348 316.968 C 93.845 316.657,94.239 316.133,94.976 316.133 C 95.438 316.133,95.480 316.263,95.148 316.662 M99.305 319.529 C 99.335 319.935,99.594 320.267,99.880 320.267 C 100.547 320.267,100.535 320.078,99.825 319.367 C 99.324 318.867,99.256 318.888,99.305 319.529 M287.600 327.000 C 287.600 327.978,287.511 328.176,286.840 328.687 C 285.884 329.415,286.675 329.300,287.830 328.543 C 289.457 327.478,289.851 326.400,288.614 326.400 C 287.979 326.400,287.600 326.624,287.600 327.000 M283.032 330.422 C 282.609 330.848,282.384 331.317,282.532 331.465 C 282.679 331.613,282.800 331.513,282.800 331.243 C 282.800 330.973,282.971 330.858,283.180 330.988 C 283.389 331.117,283.755 330.857,283.994 330.411 C 284.538 329.395,284.044 329.401,283.032 330.422 " stroke="none" fill="#181f57" fill-rule="evenodd"></path><path id="path1" d="M44.576 119.368 C 43.819 119.922,43.797 120.857,43.680 158.268 C 43.567 194.514,43.715 202.783,44.421 199.800 C 44.608 199.010,44.724 198.873,44.759 199.400 C 44.802 200.045,44.883 200.088,45.179 199.621 C 45.462 199.174,45.604 199.310,45.806 200.221 C 45.949 200.869,46.126 201.600,46.199 201.844 C 46.272 202.088,47.137 202.379,48.122 202.490 C 49.106 202.601,50.606 203.060,51.456 203.509 C 52.305 203.959,54.080 204.887,55.400 205.571 C 56.720 206.255,58.880 207.436,60.200 208.194 C 61.520 208.952,63.842 210.253,65.360 211.086 C 68.659 212.896,71.233 214.317,75.000 216.407 C 76.540 217.262,78.790 218.450,80.000 219.047 C 81.210 219.645,82.740 220.533,83.400 221.020 C 84.060 221.508,85.050 222.042,85.600 222.206 C 86.150 222.370,87.060 222.829,87.623 223.225 C 88.186 223.621,89.716 224.519,91.023 225.220 C 92.330 225.921,94.390 227.040,95.600 227.706 C 96.810 228.372,98.939 229.511,100.331 230.236 C 101.723 230.961,103.090 231.743,103.368 231.974 C 103.646 232.204,104.937 232.951,106.237 233.633 C 108.584 234.864,110.427 235.862,115.800 238.815 C 117.340 239.661,119.410 240.747,120.400 241.229 C 121.390 241.710,122.513 242.261,122.895 242.452 C 123.277 242.643,123.664 242.800,123.755 242.800 C 124.677 242.800,124.800 237.937,124.800 201.371 L 124.800 162.461 123.726 161.185 C 123.135 160.482,121.852 159.565,120.874 159.146 C 119.896 158.727,118.584 157.953,117.958 157.426 C 117.332 156.899,116.289 156.351,115.641 156.209 C 114.993 156.067,114.033 155.551,113.507 155.064 C 112.981 154.577,111.752 153.916,110.775 153.595 C 109.799 153.275,108.640 152.640,108.200 152.184 C 107.760 151.728,106.542 151.034,105.493 150.642 C 104.444 150.249,103.338 149.681,103.035 149.378 C 102.732 149.075,101.520 148.358,100.342 147.785 C 97.322 146.316,94.270 144.643,92.938 143.724 C 92.312 143.293,91.170 142.699,90.400 142.405 C 89.630 142.111,88.640 141.552,88.200 141.162 C 87.760 140.773,86.500 140.070,85.400 139.600 C 84.300 139.130,83.040 138.428,82.600 138.040 C 82.160 137.651,80.967 137.027,79.949 136.652 C 78.931 136.278,77.778 135.618,77.387 135.186 C 76.996 134.754,76.410 134.400,76.085 134.400 C 75.513 134.400,72.806 132.914,72.400 132.378 C 72.290 132.233,71.302 131.719,70.205 131.237 C 69.108 130.755,67.848 130.032,67.405 129.630 C 66.962 129.228,65.939 128.687,65.132 128.429 C 64.325 128.170,63.464 127.718,63.219 127.423 C 62.975 127.129,61.835 126.489,60.687 126.001 C 59.539 125.514,58.240 124.807,57.800 124.431 C 57.360 124.056,56.190 123.411,55.200 123.000 C 54.210 122.589,53.040 121.943,52.600 121.564 C 51.415 120.546,48.888 119.600,47.351 119.600 C 46.608 119.600,46.000 119.420,46.000 119.200 C 46.000 118.641,45.488 118.702,44.576 119.368 M200.657 328.618 C 200.574 351.708,200.468 370.870,200.420 371.200 C 200.250 372.379,200.688 373.400,201.363 373.400 C 202.336 373.400,202.365 288.194,201.392 287.220 C 200.879 286.708,200.789 291.802,200.657 328.618 M144.800 343.557 C 144.800 343.754,145.070 344.018,145.400 344.145 C 145.765 344.285,146.000 344.145,146.000 343.787 C 146.000 343.464,145.730 343.200,145.400 343.200 C 145.070 343.200,144.800 343.361,144.800 343.557 M149.200 346.310 C 149.200 346.727,150.276 348.000,150.629 348.000 C 150.947 348.000,150.803 347.726,150.000 346.800 C 149.560 346.293,149.200 346.072,149.200 346.310 M169.700 357.300 C 169.791 357.575,170.166 357.858,170.532 357.929 C 170.996 358.019,171.124 357.868,170.956 357.429 C 170.672 356.690,169.455 356.565,169.700 357.300 M174.412 359.726 C 174.388 360.378,175.240 361.600,175.714 361.594 C 176.049 361.590,176.065 361.496,175.766 361.294 C 175.527 361.132,175.127 360.640,174.878 360.200 C 174.628 359.760,174.419 359.547,174.412 359.726 " stroke="none" fill="#fae85c" fill-rule="evenodd"></path><path id="path2" d="M124.445 161.133 C 125.075 164.959,124.861 240.279,124.216 241.824 C 123.414 243.742,122.007 243.366,114.739 239.292 C 113.275 238.471,109.796 236.540,107.008 235.000 C 104.219 233.460,100.737 231.536,99.269 230.723 C 97.801 229.911,95.610 228.757,94.400 228.157 C 93.190 227.558,92.110 226.949,92.000 226.803 C 91.890 226.657,90.540 225.863,89.000 225.037 C 87.460 224.212,85.030 222.893,83.600 222.106 C 78.411 219.251,76.563 218.260,74.600 217.282 C 73.500 216.734,72.091 215.861,71.469 215.343 C 70.847 214.824,70.079 214.400,69.761 214.400 C 69.444 214.400,68.423 213.913,67.492 213.317 C 66.561 212.722,64.810 211.724,63.600 211.099 C 62.390 210.474,60.320 209.352,59.000 208.606 C 56.859 207.395,55.314 206.564,50.400 203.976 C 49.630 203.570,48.325 203.230,47.500 203.219 L 46.000 203.200 46.000 246.386 C 46.000 294.158,45.803 290.400,48.309 290.400 C 48.729 290.400,49.271 290.838,49.516 291.376 C 49.939 292.304,51.967 293.192,53.678 293.198 C 54.051 293.199,54.592 293.695,54.880 294.300 C 55.320 295.222,55.765 295.457,57.635 295.755 C 59.547 296.059,59.925 296.265,60.278 297.201 C 60.637 298.151,60.996 298.339,63.045 298.646 C 64.706 298.896,65.403 299.177,65.411 299.600 C 65.431 300.782,66.067 301.200,67.847 301.200 C 68.837 301.200,69.575 301.335,69.487 301.500 C 69.277 301.893,70.663 303.204,70.967 302.900 C 71.095 302.772,71.200 302.967,71.200 303.333 C 71.200 303.829,71.561 304.000,72.610 304.000 C 73.748 304.000,74.094 304.194,74.403 305.007 C 74.835 306.144,76.218 306.800,78.183 306.800 C 79.273 306.800,79.559 306.983,79.768 307.814 C 80.065 308.999,81.378 309.600,83.673 309.600 C 85.084 309.600,85.267 309.701,85.089 310.382 C 84.799 311.491,86.373 312.400,88.586 312.400 C 90.229 312.400,90.400 312.489,90.400 313.351 C 90.400 314.673,91.117 315.138,93.337 315.253 C 95.210 315.350,95.693 315.638,95.862 316.760 C 95.979 317.530,96.797 317.987,98.073 317.994 C 98.756 317.998,99.230 318.265,99.377 318.728 C 99.648 319.582,102.008 320.800,103.392 320.800 C 104.045 320.800,104.525 321.149,104.878 321.883 C 105.420 323.008,106.511 323.492,108.657 323.560 C 109.652 323.592,109.966 323.811,110.168 324.614 C 110.460 325.778,111.774 326.400,113.941 326.400 C 115.177 326.400,115.441 326.546,115.495 327.260 C 115.589 328.512,115.970 328.744,118.406 329.033 C 120.982 329.339,120.746 329.210,120.928 330.405 C 121.223 332.336,123.771 332.368,123.918 330.442 C 123.969 329.772,124.233 328.723,124.505 328.112 C 124.885 327.258,125.023 317.800,125.101 287.413 C 125.182 255.795,125.306 247.723,125.716 247.312 C 126.340 246.688,129.025 247.574,131.094 249.085 C 131.805 249.605,133.127 250.292,134.030 250.611 C 134.934 250.929,136.205 251.638,136.854 252.184 C 137.504 252.731,138.748 253.392,139.618 253.653 C 140.488 253.913,141.200 254.289,141.200 254.488 C 141.200 254.687,142.325 255.401,143.700 256.073 C 148.219 258.284,151.002 259.786,152.273 260.700 C 152.961 261.195,153.703 261.600,153.922 261.600 C 154.140 261.600,155.256 262.230,156.400 263.000 C 157.544 263.770,158.712 264.400,158.995 264.400 C 159.279 264.400,160.385 264.999,161.455 265.731 C 162.525 266.463,164.022 267.277,164.783 267.539 C 165.543 267.801,166.533 268.343,166.983 268.743 C 167.432 269.143,168.430 269.709,169.200 270.001 C 169.970 270.293,170.885 270.773,171.234 271.068 C 171.583 271.363,172.939 272.124,174.248 272.758 C 175.557 273.392,176.868 274.201,177.163 274.555 C 177.457 274.910,177.901 275.202,178.149 275.204 C 178.397 275.206,179.410 275.651,180.400 276.192 C 181.390 276.732,183.155 277.632,184.322 278.192 C 185.488 278.751,186.823 279.563,187.287 279.995 C 187.751 280.427,188.742 280.983,189.490 281.230 C 190.237 281.476,191.779 282.291,192.915 283.039 C 194.052 283.788,195.273 284.400,195.629 284.400 C 195.985 284.400,196.601 284.759,196.998 285.198 C 197.939 286.238,201.200 287.223,201.200 286.467 C 201.200 285.928,196.763 282.800,195.999 282.800 C 195.613 282.800,195.077 282.534,194.808 282.210 C 194.538 281.885,193.211 281.068,191.859 280.395 C 190.507 279.721,188.193 278.502,186.717 277.685 C 185.242 276.868,182.902 275.598,181.517 274.862 C 180.133 274.126,178.730 273.305,178.400 273.037 C 178.070 272.769,176.990 272.213,176.000 271.801 C 175.010 271.389,173.840 270.747,173.400 270.374 C 172.960 270.001,171.790 269.310,170.800 268.838 C 169.810 268.366,167.740 267.278,166.200 266.421 C 164.660 265.563,162.473 264.353,161.340 263.731 C 160.208 263.109,157.868 261.816,156.140 260.857 C 154.413 259.898,152.100 258.662,151.000 258.111 C 149.900 257.559,148.910 256.969,148.800 256.800 C 148.690 256.631,147.700 256.041,146.600 255.489 C 145.500 254.938,143.192 253.702,141.472 252.743 C 135.942 249.661,133.050 248.100,130.818 246.988 C 129.617 246.390,127.869 245.338,126.933 244.651 L 125.231 243.400 125.216 203.197 C 125.207 181.086,125.355 162.453,125.545 161.792 C 125.833 160.787,125.746 160.479,125.013 159.927 L 124.137 159.266 124.445 161.133 " stroke="none" fill="#fc6a8d" fill-rule="evenodd"></path><path id="path3" d="M125.452 162.100 C 125.319 162.595,125.215 181.090,125.221 203.200 L 125.231 243.400 126.933 244.651 C 127.869 245.338,129.617 246.390,130.818 246.988 C 133.050 248.100,135.942 249.661,141.472 252.743 C 143.192 253.702,145.500 254.938,146.600 255.489 C 147.700 256.041,148.690 256.631,148.800 256.800 C 148.910 256.969,149.900 257.559,151.000 258.111 C 152.100 258.662,154.413 259.898,156.140 260.857 C 157.868 261.816,160.208 263.109,161.340 263.731 C 162.473 264.353,164.660 265.563,166.200 266.421 C 167.740 267.278,169.810 268.366,170.800 268.838 C 171.790 269.310,172.960 270.001,173.400 270.374 C 173.840 270.747,175.010 271.389,176.000 271.801 C 176.990 272.213,178.070 272.769,178.400 273.037 C 178.730 273.305,180.133 274.126,181.517 274.862 C 182.902 275.598,185.242 276.868,186.717 277.685 C 188.193 278.502,190.507 279.721,191.859 280.395 C 193.211 281.068,194.538 281.885,194.808 282.210 C 195.077 282.534,195.622 282.800,196.018 282.800 C 196.415 282.800,197.518 283.395,198.469 284.121 L 200.200 285.442 200.105 244.621 C 199.998 198.219,200.166 201.569,197.893 200.573 C 196.962 200.165,195.660 199.440,195.000 198.961 C 194.340 198.482,193.080 197.728,192.200 197.286 C 191.320 196.844,189.430 195.856,188.000 195.090 C 186.570 194.324,184.140 193.027,182.600 192.207 C 181.060 191.387,179.530 190.486,179.200 190.205 C 178.870 189.924,178.150 189.562,177.600 189.401 C 177.050 189.239,176.060 188.708,175.400 188.220 C 174.740 187.733,173.210 186.847,172.000 186.251 C 169.983 185.259,168.148 184.268,162.000 180.849 C 160.790 180.176,158.810 179.112,157.600 178.484 C 156.390 177.857,154.680 176.906,153.800 176.372 C 151.316 174.865,149.981 174.129,147.600 172.953 C 146.390 172.355,144.860 171.467,144.200 170.980 C 143.540 170.492,142.550 169.958,142.000 169.794 C 141.450 169.630,140.550 169.180,140.000 168.794 C 138.228 167.553,126.405 161.200,125.866 161.200 C 125.771 161.200,125.585 161.605,125.452 162.100 M89.400 313.200 C 89.798 313.640,90.186 314.000,90.262 314.000 C 90.338 314.000,90.400 313.640,90.400 313.200 C 90.400 312.647,90.133 312.400,89.538 312.400 C 88.701 312.400,88.697 312.424,89.400 313.200 M93.606 315.851 C 93.603 316.099,93.870 316.526,94.200 316.800 C 94.530 317.074,94.803 317.141,94.806 316.949 C 94.809 316.757,94.980 316.865,95.184 317.188 C 95.389 317.512,95.700 317.634,95.875 317.458 C 96.168 317.165,94.796 316.110,94.445 316.358 C 94.359 316.419,94.137 316.228,93.951 315.934 C 93.747 315.613,93.610 315.580,93.606 315.851 M114.863 327.600 C 115.886 328.983,116.223 329.163,115.596 327.992 C 115.358 327.547,115.272 327.007,115.405 326.792 C 115.538 326.576,115.271 326.400,114.812 326.400 L 113.976 326.400 114.863 327.600 M118.800 329.538 C 118.800 329.880,119.813 330.860,120.665 331.341 C 120.957 331.506,121.080 331.343,120.995 330.902 C 120.922 330.516,120.847 329.975,120.831 329.700 C 120.797 329.151,118.800 328.992,118.800 329.538 " stroke="none" fill="#b574f8" fill-rule="evenodd"></path><path id="path4" d="M46.000 118.000 C 46.000 119.551,46.041 119.600,47.351 119.600 C 48.888 119.600,51.415 120.546,52.600 121.564 C 53.040 121.943,54.210 122.589,55.200 123.000 C 56.190 123.411,57.360 124.056,57.800 124.431 C 58.240 124.807,59.539 125.514,60.687 126.001 C 61.835 126.489,62.975 127.129,63.219 127.423 C 63.464 127.718,64.325 128.170,65.132 128.429 C 65.939 128.687,66.962 129.228,67.405 129.630 C 67.848 130.032,69.108 130.755,70.205 131.237 C 71.302 131.719,72.290 132.233,72.400 132.378 C 72.806 132.914,75.513 134.400,76.085 134.400 C 76.410 134.400,76.996 134.754,77.387 135.186 C 77.778 135.618,78.931 136.278,79.949 136.652 C 80.967 137.027,82.160 137.651,82.600 138.040 C 83.040 138.428,84.300 139.130,85.400 139.600 C 86.500 140.070,87.760 140.773,88.200 141.162 C 88.640 141.552,89.630 142.111,90.400 142.405 C 91.170 142.699,92.312 143.293,92.938 143.724 C 94.270 144.643,97.322 146.316,100.342 147.785 C 101.520 148.358,102.732 149.075,103.035 149.378 C 103.338 149.681,104.444 150.249,105.493 150.642 C 106.542 151.034,107.760 151.728,108.200 152.184 C 108.640 152.640,109.799 153.275,110.775 153.595 C 111.752 153.916,112.981 154.577,113.507 155.064 C 114.033 155.551,114.993 156.067,115.641 156.209 C 116.289 156.351,117.339 156.905,117.974 157.439 C 118.609 157.974,119.820 158.695,120.664 159.043 C 121.509 159.390,122.695 160.141,123.300 160.712 L 124.400 161.750 124.400 160.684 C 124.400 159.398,123.658 158.859,117.458 155.643 C 116.169 154.974,114.909 154.258,114.658 154.051 C 114.406 153.844,113.120 153.096,111.800 152.389 C 110.480 151.683,108.320 150.523,107.000 149.811 C 105.680 149.100,103.537 147.953,102.238 147.264 C 100.938 146.575,99.574 145.739,99.206 145.406 C 98.838 145.072,98.341 144.800,98.101 144.800 C 97.541 144.800,95.252 143.578,94.355 142.800 C 93.975 142.470,92.749 141.845,91.632 141.412 C 90.514 140.979,89.600 140.500,89.600 140.350 C 89.600 140.199,88.475 139.515,87.100 138.831 C 85.725 138.146,83.340 136.867,81.800 135.988 C 80.260 135.109,78.190 133.981,77.200 133.481 C 76.210 132.981,74.639 132.083,73.708 131.486 C 72.777 130.889,71.820 130.400,71.580 130.400 C 71.340 130.400,70.392 129.886,69.472 129.257 C 68.552 128.628,66.990 127.722,66.000 127.244 C 62.553 125.577,59.170 123.697,58.456 123.050 C 58.060 122.693,57.507 122.400,57.227 122.400 C 56.946 122.400,55.920 121.863,54.948 121.207 C 53.976 120.551,52.282 119.627,51.185 119.155 C 49.798 118.559,49.117 118.008,48.951 117.348 C 48.479 115.468,46.000 116.016,46.000 118.000 M43.745 242.132 C 43.805 289.285,43.697 286.800,45.676 286.800 C 45.854 286.800,46.000 267.990,46.000 245.000 L 46.000 203.200 47.500 203.219 C 48.325 203.230,49.630 203.570,50.400 203.976 C 55.314 206.564,56.859 207.395,59.000 208.606 C 60.320 209.352,62.390 210.474,63.600 211.099 C 64.810 211.724,66.561 212.722,67.492 213.317 C 68.423 213.913,69.444 214.400,69.761 214.400 C 70.079 214.400,70.847 214.824,71.469 215.343 C 72.091 215.861,73.500 216.734,74.600 217.282 C 76.563 218.260,78.411 219.251,83.600 222.106 C 85.030 222.893,87.460 224.212,89.000 225.037 C 90.540 225.863,91.890 226.657,92.000 226.803 C 92.110 226.949,93.190 227.558,94.400 228.157 C 95.610 228.757,97.801 229.911,99.269 230.723 C 100.737 231.536,104.219 233.460,107.008 235.000 C 109.796 236.540,113.275 238.471,114.739 239.292 C 120.327 242.424,124.374 244.015,123.221 242.625 C 122.936 242.281,122.409 241.997,122.051 241.993 C 121.693 241.990,120.680 241.549,119.800 241.014 C 118.920 240.478,117.120 239.482,115.800 238.800 C 114.480 238.118,112.140 236.847,110.600 235.976 C 109.060 235.105,106.952 233.973,105.916 233.459 C 104.880 232.945,103.769 232.307,103.448 232.040 C 103.126 231.772,101.723 230.961,100.331 230.236 C 98.939 229.511,96.810 228.372,95.600 227.706 C 94.390 227.040,92.330 225.921,91.023 225.220 C 89.716 224.519,88.186 223.621,87.623 223.225 C 87.060 222.829,86.150 222.370,85.600 222.206 C 85.050 222.042,84.060 221.508,83.400 221.020 C 82.740 220.533,81.210 219.645,80.000 219.047 C 78.790 218.450,76.540 217.262,75.000 216.407 C 71.233 214.317,68.659 212.896,65.360 211.086 C 63.842 210.253,61.520 208.952,60.200 208.194 C 58.880 207.436,56.720 206.255,55.400 205.571 C 54.080 204.887,52.305 203.959,51.456 203.509 C 50.606 203.060,49.106 202.601,48.122 202.490 C 47.137 202.379,46.272 202.088,46.199 201.844 C 46.126 201.600,45.949 200.869,45.806 200.221 C 45.620 199.379,45.450 199.195,45.213 199.579 C 44.956 199.995,44.837 199.945,44.687 199.358 C 44.552 198.833,44.464 198.968,44.399 199.800 L 44.305 201.000 43.997 199.800 C 43.828 199.140,43.714 218.190,43.745 242.132 M125.665 247.322 C 125.323 247.734,125.175 258.194,125.099 287.440 C 125.022 317.042,124.876 327.302,124.517 328.200 C 123.887 329.776,123.583 332.000,123.997 332.000 C 124.178 332.000,124.235 332.345,124.125 332.766 C 123.870 333.740,124.834 334.271,127.500 334.624 C 128.752 334.791,129.478 335.070,129.381 335.347 C 129.039 336.325,130.293 337.148,132.622 337.475 C 134.795 337.779,135.001 337.894,135.008 338.802 C 135.016 339.881,135.968 340.260,138.900 340.353 C 139.916 340.385,140.419 340.594,140.460 341.000 C 140.493 341.330,140.538 341.825,140.560 342.100 C 140.613 342.762,141.779 343.111,144.100 343.160 C 145.936 343.199,146.000 343.241,146.000 344.400 C 146.000 345.178,146.211 345.618,146.600 345.650 C 146.930 345.678,147.380 345.745,147.600 345.800 C 147.820 345.855,148.379 345.923,148.843 345.950 C 149.404 345.983,149.611 346.193,149.463 346.580 C 149.315 346.967,149.433 347.085,149.820 346.937 C 150.406 346.712,150.655 347.391,150.100 347.701 C 149.935 347.793,150.013 347.818,150.274 347.757 C 150.535 347.695,150.809 347.826,150.883 348.048 C 150.957 348.270,151.823 348.557,152.809 348.686 C 154.524 348.910,155.188 349.333,155.188 350.200 C 155.188 350.420,155.013 350.330,154.800 350.000 C 154.556 349.623,154.410 349.581,154.406 349.886 C 154.396 350.679,155.812 351.200,157.974 351.200 C 159.717 351.200,160.007 351.312,160.050 352.000 C 160.176 354.015,159.910 353.873,163.695 353.957 C 165.242 353.992,165.580 354.129,165.532 354.700 C 165.377 356.551,165.519 356.666,168.091 356.759 C 170.926 356.861,170.767 356.792,171.003 358.016 C 171.209 359.086,171.852 359.585,173.036 359.594 C 173.534 359.598,174.054 360.001,174.324 360.592 C 174.642 361.291,174.976 361.507,175.453 361.324 C 175.881 361.160,176.034 361.221,175.868 361.490 C 175.519 362.055,176.502 362.400,178.460 362.400 C 179.832 362.400,180.021 362.504,179.818 363.144 C 179.560 363.956,180.519 365.021,181.155 364.628 C 181.369 364.495,181.658 364.570,181.796 364.793 C 181.934 365.017,182.740 365.200,183.586 365.200 C 184.928 365.200,185.098 365.302,184.916 366.000 C 184.794 366.465,184.904 366.800,185.177 366.800 C 185.436 366.800,185.533 366.984,185.394 367.210 C 185.255 367.435,185.289 367.587,185.470 367.546 C 185.652 367.506,186.070 367.586,186.400 367.724 C 186.730 367.862,187.810 368.025,188.800 368.087 C 190.474 368.192,190.599 368.277,190.584 369.300 C 190.576 369.905,190.756 370.427,190.984 370.459 C 192.326 370.650,192.758 370.687,194.300 370.741 C 195.689 370.789,196.000 370.941,196.000 371.567 C 196.000 373.283,196.408 373.600,198.620 373.600 C 200.631 373.600,200.741 373.548,200.535 372.700 C 200.415 372.205,200.359 371.530,200.412 371.200 C 200.464 370.870,200.574 351.752,200.657 328.716 L 200.807 286.833 199.267 286.418 C 198.420 286.190,197.401 285.643,197.002 285.202 C 196.602 284.761,195.985 284.400,195.629 284.400 C 195.273 284.400,194.052 283.788,192.915 283.039 C 191.779 282.291,190.237 281.476,189.490 281.230 C 188.742 280.983,187.751 280.427,187.287 279.995 C 186.823 279.563,185.488 278.751,184.322 278.192 C 183.155 277.632,181.390 276.732,180.400 276.192 C 179.410 275.651,178.397 275.206,178.149 275.204 C 177.901 275.202,177.457 274.910,177.163 274.555 C 176.868 274.201,175.557 273.392,174.248 272.758 C 172.939 272.124,171.583 271.363,171.234 271.068 C 170.885 270.773,169.970 270.293,169.200 270.001 C 168.430 269.709,167.432 269.143,166.983 268.743 C 166.533 268.343,165.543 267.801,164.783 267.539 C 164.022 267.277,162.525 266.463,161.455 265.731 C 160.385 264.999,159.279 264.400,158.995 264.400 C 158.712 264.400,157.544 263.770,156.400 263.000 C 155.256 262.230,154.140 261.600,153.922 261.600 C 153.703 261.600,152.961 261.195,152.273 260.700 C 151.002 259.786,148.219 258.284,143.700 256.073 C 142.325 255.401,141.200 254.687,141.200 254.488 C 141.200 254.289,140.488 253.913,139.618 253.653 C 138.748 253.392,137.504 252.731,136.854 252.184 C 136.205 251.638,134.934 250.929,134.030 250.611 C 133.127 250.292,131.805 249.599,131.094 249.071 C 130.382 248.543,129.260 247.924,128.600 247.696 C 127.940 247.468,127.114 247.165,126.764 247.023 C 126.414 246.880,125.920 247.015,125.665 247.322 M48.900 292.100 C 48.991 292.375,49.406 292.666,49.820 292.746 C 50.473 292.873,50.502 292.805,50.038 292.246 C 49.404 291.482,48.662 291.386,48.900 292.100 M63.456 299.402 C 63.953 300.696,65.437 301.197,65.418 300.064 C 65.403 299.219,65.192 299.001,64.322 298.934 C 63.552 298.875,63.305 299.008,63.456 299.402 M85.000 312.000 C 85.136 312.220,85.517 312.400,85.847 312.400 C 86.177 312.400,86.336 312.220,86.200 312.000 C 86.064 311.780,85.683 311.600,85.353 311.600 C 85.023 311.600,84.864 311.780,85.000 312.000 " stroke="none" fill="#ff9c44" fill-rule="evenodd"></path><path id="path5" d="M357.400 116.306 C 356.727 116.801,356.754 117.593,357.435 117.331 C 357.830 117.180,358.032 117.295,357.983 117.646 C 357.798 118.971,357.983 119.441,358.438 118.800 C 358.763 118.343,358.806 118.486,358.620 119.400 C 358.461 120.183,358.502 120.411,358.739 120.055 C 359.047 119.594,359.143 119.594,359.356 120.055 C 359.495 120.355,359.504 120.150,359.376 119.600 C 359.248 119.050,359.083 118.205,359.009 117.723 C 358.769 116.151,358.243 115.687,357.400 116.306 M275.000 161.813 C 274.120 162.352,272.230 163.398,270.800 164.138 C 269.370 164.878,267.030 166.144,265.600 166.951 C 264.170 167.758,262.190 168.801,261.200 169.269 C 260.210 169.737,258.860 170.521,258.200 171.012 C 257.540 171.502,256.190 172.293,255.200 172.770 C 254.210 173.246,252.140 174.342,250.600 175.206 C 249.060 176.070,247.170 177.091,246.400 177.475 C 245.630 177.859,244.491 178.517,243.869 178.936 C 243.247 179.356,241.717 180.221,240.469 180.859 C 239.221 181.497,236.940 182.714,235.400 183.563 C 230.403 186.319,228.243 187.493,225.837 188.761 C 224.537 189.446,223.277 190.164,223.037 190.356 C 222.488 190.795,217.850 193.335,210.751 197.085 C 209.514 197.738,207.984 198.637,207.351 199.081 C 206.718 199.525,205.541 200.103,204.735 200.364 C 203.930 200.625,203.165 201.115,203.035 201.452 C 202.606 202.571,202.768 284.400,203.200 284.400 C 203.420 284.400,203.960 284.040,204.400 283.600 C 204.840 283.160,205.525 282.800,205.921 282.800 C 206.318 282.800,207.353 282.284,208.221 281.654 C 209.090 281.023,210.461 280.294,211.268 280.033 C 212.075 279.772,212.975 279.271,213.268 278.918 C 213.561 278.565,214.880 277.756,216.200 277.119 C 219.934 275.318,223.379 273.467,223.613 273.136 C 223.729 272.971,224.851 272.366,226.105 271.792 C 227.359 271.218,228.489 270.580,228.617 270.373 C 228.881 269.945,232.140 268.400,232.778 268.400 C 233.010 268.400,233.200 268.233,233.200 268.029 C 233.200 267.826,234.235 267.156,235.500 266.541 C 236.765 265.926,238.394 265.024,239.120 264.536 C 239.845 264.048,241.069 263.441,241.840 263.187 C 242.610 262.933,243.698 262.300,244.259 261.781 C 244.819 261.261,245.935 260.626,246.739 260.369 C 247.542 260.112,248.568 259.567,249.017 259.159 C 249.467 258.750,250.457 258.204,251.217 257.946 C 251.978 257.687,253.256 256.963,254.058 256.338 C 254.859 255.712,255.765 255.200,256.071 255.200 C 256.377 255.200,257.606 254.570,258.802 253.799 C 259.998 253.028,261.341 252.288,261.788 252.153 C 262.235 252.018,263.140 251.510,263.800 251.025 C 264.460 250.540,265.810 249.827,266.800 249.440 C 267.790 249.053,268.960 248.417,269.400 248.027 C 269.840 247.637,271.054 246.977,272.099 246.559 C 273.143 246.142,273.998 245.656,273.999 245.480 C 274.001 244.945,276.682 244.000,278.195 244.000 C 279.886 244.000,283.299 242.385,293.200 236.903 C 294.410 236.232,296.660 235.020,298.200 234.208 C 299.740 233.395,301.270 232.513,301.600 232.246 C 301.930 231.979,303.136 231.338,304.280 230.821 C 305.424 230.305,306.447 229.656,306.553 229.379 C 306.659 229.102,307.292 228.755,307.960 228.609 C 308.627 228.462,309.823 227.901,310.618 227.362 C 311.412 226.823,312.993 225.913,314.131 225.340 C 315.269 224.766,316.650 223.984,317.200 223.601 C 317.750 223.218,318.650 222.765,319.200 222.595 C 319.750 222.424,320.740 221.874,321.400 221.371 C 322.061 220.868,323.411 220.071,324.400 219.599 C 325.390 219.127,327.460 218.048,329.000 217.202 C 330.540 216.356,332.925 215.086,334.300 214.381 C 335.675 213.676,336.800 212.975,336.800 212.823 C 336.800 212.671,337.797 212.134,339.017 211.629 C 340.236 211.123,341.451 210.493,341.717 210.229 C 341.982 209.964,343.190 209.257,344.400 208.657 C 345.610 208.057,348.220 206.682,350.200 205.601 C 352.180 204.520,354.282 203.628,354.871 203.618 C 355.461 203.608,356.231 203.312,356.583 202.960 C 357.094 202.449,357.340 202.418,357.811 202.809 C 358.293 203.209,358.405 203.162,358.428 202.549 C 358.454 201.852,358.480 201.856,358.800 202.600 C 359.092 203.279,359.142 203.219,359.132 202.200 C 359.120 200.956,358.510 198.599,358.440 199.524 C 358.418 199.812,358.250 199.955,358.068 199.842 C 357.885 199.729,357.499 200.238,357.211 200.973 C 356.754 202.137,356.469 202.333,354.995 202.499 C 354.064 202.604,352.785 202.964,352.151 203.298 C 351.518 203.632,349.988 204.438,348.751 205.089 C 347.514 205.740,345.984 206.638,345.351 207.084 C 344.718 207.530,343.750 208.032,343.200 208.200 C 342.650 208.368,341.660 208.886,341.000 209.352 C 340.340 209.819,338.904 210.616,337.809 211.124 C 336.714 211.632,335.724 212.187,335.609 212.358 C 335.494 212.529,334.410 213.158,333.200 213.757 C 331.990 214.357,329.740 215.551,328.200 216.412 C 326.660 217.272,324.552 218.404,323.516 218.926 C 322.480 219.448,321.386 220.079,321.085 220.329 C 320.784 220.579,319.292 221.439,317.769 222.241 C 316.246 223.043,314.010 224.243,312.800 224.908 C 311.590 225.573,309.461 226.711,308.069 227.436 C 306.677 228.161,305.274 228.972,304.952 229.240 C 304.631 229.507,303.434 230.158,302.293 230.686 C 301.151 231.215,300.124 231.791,300.009 231.967 C 299.894 232.143,298.990 232.672,298.000 233.144 C 297.010 233.616,295.014 234.677,293.564 235.501 C 282.582 241.747,279.549 242.999,278.800 241.600 C 278.522 241.081,278.354 227.841,278.292 201.711 C 278.187 157.113,278.403 159.732,275.000 161.813 M358.652 206.100 C 358.272 207.517,358.416 282.106,358.800 283.000 C 358.995 283.454,359.156 266.797,359.172 244.500 C 359.187 222.885,359.131 205.200,359.047 205.200 C 358.962 205.200,358.785 205.605,358.652 206.100 M358.855 285.839 C 358.443 286.744,358.289 286.813,357.690 286.360 C 357.104 285.917,357.076 285.923,357.500 286.399 C 358.179 287.161,358.130 287.625,357.400 287.345 C 356.984 287.185,356.800 287.372,356.800 287.957 C 356.800 288.421,356.963 288.800,357.162 288.800 C 357.577 288.800,359.758 285.225,359.500 284.967 C 359.407 284.873,359.116 285.266,358.855 285.839 M343.150 296.200 C 343.123 296.310,343.075 296.535,343.044 296.700 C 343.013 296.865,342.837 297.237,342.654 297.527 C 342.010 298.542,342.609 298.283,343.530 297.147 C 344.275 296.230,344.335 296.000,343.830 296.000 C 343.484 296.000,343.178 296.090,343.150 296.200 M338.604 299.593 C 338.466 299.817,338.498 300.003,338.676 300.006 C 338.854 300.009,338.730 300.187,338.400 300.400 C 338.070 300.613,338.003 300.791,338.251 300.794 C 338.926 300.803,339.717 299.719,339.247 299.429 C 339.032 299.296,338.742 299.370,338.604 299.593 M318.000 310.449 C 318.000 311.158,318.099 311.216,318.600 310.800 C 318.930 310.526,319.200 310.144,319.200 309.951 C 319.200 309.758,318.930 309.600,318.600 309.600 C 318.255 309.600,318.000 309.961,318.000 310.449 M282.700 329.103 C 282.315 329.189,281.987 329.380,281.970 329.529 C 281.954 329.678,281.865 330.205,281.773 330.700 C 281.555 331.870,281.731 331.836,283.165 330.435 C 284.345 329.281,284.169 328.777,282.700 329.103 M262.400 341.049 C 262.400 341.580,262.509 341.608,263.000 341.200 C 263.330 340.926,263.600 340.634,263.600 340.551 C 263.600 340.468,263.330 340.400,263.000 340.400 C 262.670 340.400,262.400 340.692,262.400 341.049 M206.800 371.400 C 206.800 371.730,206.958 372.000,207.151 372.000 C 207.344 372.000,207.726 371.730,208.000 371.400 C 208.416 370.899,208.358 370.800,207.649 370.800 C 207.161 370.800,206.800 371.055,206.800 371.400 " stroke="none" fill="#2dc4ee" fill-rule="evenodd"></path><path id="path6" d="M356.145 117.400 C 356.018 117.730,355.557 118.000,355.120 118.000 C 354.684 118.000,353.869 118.360,353.309 118.800 C 352.750 119.240,352.034 119.600,351.719 119.600 C 351.404 119.600,350.574 120.028,349.873 120.552 C 349.173 121.075,347.700 121.950,346.600 122.495 C 343.650 123.957,339.866 126.020,339.342 126.451 C 339.091 126.658,337.831 127.372,336.542 128.037 C 335.254 128.702,332.940 129.941,331.400 130.790 C 328.378 132.457,326.657 133.401,322.000 135.942 C 320.350 136.843,317.956 138.169,316.681 138.890 C 312.888 141.033,309.151 143.073,306.658 144.362 C 305.369 145.028,304.109 145.742,303.858 145.949 C 303.606 146.156,302.320 146.904,301.000 147.610 C 299.680 148.317,297.610 149.440,296.400 150.106 C 295.190 150.772,293.049 151.917,291.642 152.649 C 290.235 153.381,288.795 154.232,288.442 154.540 C 288.089 154.847,287.136 155.312,286.325 155.572 C 285.514 155.833,284.353 156.440,283.745 156.923 C 283.137 157.405,281.818 158.160,280.813 158.600 C 277.632 159.992,277.041 160.567,277.665 161.662 C 278.100 162.424,278.217 169.941,278.292 201.711 C 278.354 227.841,278.522 241.081,278.800 241.600 C 279.549 242.999,282.582 241.747,293.564 235.501 C 295.014 234.677,297.010 233.616,298.000 233.144 C 298.990 232.672,299.894 232.143,300.009 231.967 C 300.124 231.791,301.151 231.215,302.293 230.686 C 303.434 230.158,304.631 229.507,304.952 229.240 C 305.274 228.972,306.677 228.161,308.069 227.436 C 309.461 226.711,311.590 225.573,312.800 224.908 C 314.010 224.243,316.246 223.043,317.769 222.241 C 319.292 221.439,320.784 220.579,321.085 220.329 C 321.386 220.079,322.480 219.448,323.516 218.926 C 324.552 218.404,326.660 217.272,328.200 216.412 C 329.740 215.551,331.990 214.357,333.200 213.757 C 334.410 213.158,335.494 212.529,335.609 212.358 C 335.724 212.187,336.714 211.632,337.809 211.124 C 338.904 210.616,340.340 209.819,341.000 209.352 C 341.660 208.886,342.650 208.368,343.200 208.200 C 343.750 208.032,344.718 207.530,345.351 207.084 C 345.984 206.638,347.514 205.740,348.751 205.089 C 349.988 204.438,351.518 203.632,352.151 203.298 C 352.785 202.964,354.064 202.604,354.995 202.499 C 356.469 202.333,356.754 202.137,357.211 200.973 C 357.499 200.238,357.885 199.729,358.068 199.842 C 358.250 199.955,358.418 199.812,358.440 199.524 C 358.462 199.236,358.625 199.450,358.803 200.000 C 358.981 200.550,359.098 182.514,359.063 159.920 C 359.012 126.661,358.900 118.741,358.476 118.320 C 358.046 117.892,357.999 117.942,358.214 118.600 C 358.411 119.204,358.377 119.262,358.075 118.836 C 357.854 118.526,357.779 118.000,357.906 117.667 C 358.078 117.221,357.957 117.131,357.449 117.326 C 357.038 117.484,356.857 117.431,357.003 117.195 C 357.137 116.978,357.051 116.800,356.811 116.800 C 356.571 116.800,356.271 117.070,356.145 117.400 M127.200 161.760 C 131.881 164.147,138.775 167.936,140.000 168.794 C 140.550 169.180,141.450 169.630,142.000 169.794 C 142.550 169.958,143.540 170.495,144.200 170.987 C 144.860 171.478,146.264 172.261,147.319 172.726 C 148.374 173.191,149.704 173.938,150.273 174.386 C 150.842 174.834,151.505 175.200,151.747 175.200 C 152.688 175.200,147.943 172.363,142.000 169.373 C 140.790 168.765,139.710 168.145,139.600 167.996 C 139.490 167.847,138.410 167.233,137.200 166.631 C 135.990 166.029,134.730 165.302,134.400 165.016 C 134.070 164.729,133.350 164.360,132.800 164.195 C 132.250 164.030,131.350 163.582,130.800 163.200 C 129.310 162.164,126.504 160.797,125.916 160.821 C 125.632 160.833,126.210 161.255,127.200 161.760 M152.400 175.360 C 152.400 175.609,155.180 177.245,157.399 178.302 C 158.498 178.826,159.714 179.541,160.101 179.892 C 160.488 180.242,160.911 180.423,161.040 180.293 C 161.296 180.038,158.524 178.179,157.054 177.621 C 156.555 177.431,155.459 176.809,154.618 176.238 C 153.209 175.282,152.400 174.962,152.400 175.360 M163.000 181.402 C 164.497 182.327,165.720 182.985,171.811 186.148 C 173.137 186.837,174.757 187.781,175.411 188.248 C 176.065 188.714,177.050 189.223,177.600 189.378 C 178.436 189.615,178.385 189.526,177.290 188.831 C 176.570 188.374,175.805 188.000,175.590 188.000 C 175.376 188.000,175.200 187.850,175.200 187.668 C 175.200 187.485,174.165 186.846,172.900 186.248 C 171.635 185.650,169.340 184.452,167.800 183.587 C 163.189 180.996,162.048 180.400,161.716 180.407 C 161.542 180.410,162.120 180.858,163.000 181.402 M179.214 190.163 C 179.786 190.712,183.377 192.708,187.400 194.713 C 188.500 195.261,189.905 196.064,190.523 196.498 C 191.141 196.932,191.725 197.209,191.820 197.113 C 192.054 196.879,189.057 194.934,187.910 194.575 C 187.410 194.419,186.280 193.811,185.400 193.226 C 184.520 192.640,183.034 191.827,182.098 191.419 C 181.161 191.010,180.194 190.434,179.949 190.138 C 179.703 189.842,179.306 189.600,179.065 189.600 C 178.820 189.600,178.886 189.847,179.214 190.163 M194.260 198.500 C 195.860 199.572,196.921 200.131,199.688 201.361 C 199.737 201.382,199.872 220.249,199.988 243.286 C 200.216 288.363,200.165 287.341,202.123 285.904 C 203.254 285.074,203.368 201.063,202.238 201.358 C 201.329 201.596,197.583 200.079,194.939 198.402 C 192.385 196.783,191.818 196.864,194.260 198.500 " stroke="none" fill="#779af2" fill-rule="evenodd"></path><path id="path7" d="M359.392 244.400 C 359.392 265.190,359.441 273.695,359.500 263.300 C 359.559 252.905,359.559 235.895,359.500 225.500 C 359.441 215.105,359.392 223.610,359.392 244.400 M273.800 247.657 C 272.260 248.498,269.888 249.725,268.529 250.384 C 267.171 251.042,265.952 251.754,265.822 251.965 C 265.691 252.176,264.643 252.815,263.492 253.386 C 262.342 253.957,260.590 254.867,259.600 255.408 C 258.610 255.949,257.597 256.394,257.349 256.396 C 257.101 256.398,256.651 256.700,256.349 257.067 C 256.047 257.435,254.720 258.263,253.400 258.909 C 249.841 260.650,247.019 262.191,245.738 263.093 C 245.112 263.534,244.150 264.035,243.600 264.205 C 243.050 264.376,241.702 265.120,240.605 265.858 C 239.508 266.596,238.382 267.200,238.102 267.200 C 237.822 267.200,236.848 267.740,235.937 268.400 C 235.025 269.060,234.055 269.600,233.780 269.600 C 233.505 269.600,232.400 270.193,231.323 270.917 C 230.247 271.641,228.744 272.481,227.983 272.782 C 227.222 273.083,226.240 273.636,225.800 274.010 C 225.360 274.384,224.010 275.168,222.800 275.754 C 220.618 276.809,217.484 278.489,213.144 280.931 C 211.903 281.629,209.743 282.805,208.344 283.545 C 206.945 284.285,205.492 285.161,205.116 285.492 C 204.699 285.860,204.061 286.002,203.481 285.856 C 202.204 285.536,200.790 286.533,201.500 287.253 C 201.893 287.652,202.001 296.465,202.003 328.580 C 202.005 351.031,202.122 370.358,202.263 371.528 L 202.518 373.656 204.559 373.524 C 206.262 373.414,206.610 373.261,206.657 372.596 C 206.689 372.158,206.734 371.575,206.757 371.300 C 206.786 370.967,207.523 370.800,208.967 370.800 C 211.867 370.800,212.400 370.545,212.400 369.157 C 212.400 368.014,212.428 368.000,214.720 368.000 C 217.227 368.000,218.000 367.557,218.000 366.120 C 218.000 365.294,218.187 365.200,219.826 365.200 C 222.083 365.200,223.033 364.719,223.362 363.411 C 223.558 362.627,223.870 362.400,224.748 362.400 C 226.690 362.400,228.385 361.600,228.646 360.560 C 228.865 359.685,229.847 359.316,231.311 359.556 C 231.482 359.584,231.739 359.305,231.881 358.934 C 232.429 357.505,233.577 356.800,235.355 356.800 C 237.041 356.800,237.121 356.745,237.370 355.419 C 237.629 354.038,237.631 354.037,240.091 353.919 C 242.497 353.803,242.560 353.771,242.888 352.500 C 243.208 351.256,243.308 351.200,245.179 351.200 C 247.754 351.200,248.400 350.911,248.400 349.757 C 248.400 348.958,248.600 348.800,249.613 348.800 C 251.367 348.800,253.481 347.806,253.788 346.837 C 253.947 346.338,254.393 346.000,254.893 346.000 C 256.304 346.000,258.703 344.731,259.151 343.747 C 259.426 343.144,259.793 342.899,260.193 343.053 C 260.532 343.183,261.049 343.091,261.342 342.848 C 261.634 342.606,262.017 342.540,262.191 342.703 C 262.366 342.867,262.417 342.491,262.304 341.868 C 262.070 340.580,262.172 340.521,265.138 340.219 C 267.737 339.954,268.000 339.807,268.000 338.623 C 268.000 337.775,268.226 337.669,270.575 337.417 C 273.010 337.157,273.163 337.078,273.406 335.971 C 273.548 335.327,273.874 334.791,274.132 334.780 C 275.717 334.711,278.247 334.277,278.512 334.029 C 278.982 333.588,279.150 329.532,278.743 328.455 C 278.542 327.923,278.390 310.381,278.396 288.350 C 278.409 241.805,278.763 244.947,273.800 247.657 M257.798 344.002 C 257.398 344.444,256.966 344.699,256.836 344.570 C 256.707 344.440,256.950 344.079,257.377 343.767 C 258.473 342.966,258.648 343.063,257.798 344.002 " stroke="none" fill="#74fd74" fill-rule="evenodd"></path><path id="path8" d="M358.425 202.549 C 358.405 203.162,358.293 203.210,357.811 202.809 C 357.340 202.418,357.094 202.449,356.583 202.960 C 356.231 203.312,355.461 203.608,354.871 203.618 C 354.282 203.628,352.180 204.520,350.200 205.601 C 348.220 206.682,345.610 208.057,344.400 208.657 C 343.190 209.257,341.982 209.964,341.717 210.229 C 341.451 210.493,340.236 211.123,339.017 211.629 C 337.797 212.134,336.800 212.671,336.800 212.823 C 336.800 212.975,335.675 213.676,334.300 214.381 C 332.925 215.086,330.540 216.356,329.000 217.202 C 327.460 218.048,325.390 219.127,324.400 219.599 C 323.411 220.071,322.061 220.868,321.400 221.371 C 320.740 221.874,319.750 222.424,319.200 222.595 C 318.650 222.765,317.750 223.218,317.200 223.601 C 316.650 223.984,315.269 224.766,314.131 225.340 C 312.993 225.913,311.412 226.823,310.618 227.362 C 309.823 227.901,308.627 228.462,307.960 228.609 C 307.292 228.755,306.659 229.102,306.553 229.379 C 306.447 229.656,305.424 230.305,304.280 230.821 C 303.136 231.338,301.930 231.979,301.600 232.246 C 301.270 232.513,299.740 233.395,298.200 234.208 C 296.660 235.020,294.410 236.232,293.200 236.903 C 283.299 242.385,279.886 244.000,278.195 244.000 C 276.682 244.000,274.001 244.945,273.999 245.480 C 273.998 245.656,273.143 246.142,272.099 246.559 C 271.054 246.977,269.840 247.637,269.400 248.027 C 268.960 248.417,267.790 249.053,266.800 249.440 C 265.810 249.827,264.460 250.540,263.800 251.025 C 263.140 251.510,262.235 252.018,261.788 252.153 C 261.341 252.288,259.998 253.028,258.802 253.799 C 257.606 254.570,256.377 255.200,256.071 255.200 C 255.765 255.200,254.859 255.712,254.058 256.338 C 253.256 256.963,251.978 257.687,251.217 257.946 C 250.457 258.204,249.467 258.750,249.017 259.159 C 248.568 259.567,247.542 260.112,246.739 260.369 C 245.935 260.626,244.819 261.261,244.259 261.781 C 243.698 262.300,242.610 262.933,241.840 263.187 C 241.069 263.441,239.845 264.048,239.120 264.536 C 238.394 265.024,236.765 265.926,235.500 266.541 C 234.235 267.156,233.200 267.826,233.200 268.029 C 233.200 268.233,233.010 268.400,232.778 268.400 C 232.140 268.400,228.881 269.945,228.617 270.373 C 228.489 270.580,227.359 271.218,226.105 271.792 C 224.851 272.366,223.729 272.971,223.613 273.136 C 223.379 273.467,219.934 275.318,216.200 277.119 C 214.880 277.756,213.561 278.565,213.268 278.918 C 212.975 279.271,212.075 279.772,211.268 280.033 C 210.461 280.294,209.090 281.023,208.221 281.654 C 207.353 282.284,206.329 282.800,205.946 282.800 C 205.011 282.800,202.635 285.010,202.976 285.562 C 203.318 286.115,204.670 286.134,205.006 285.590 C 205.146 285.365,206.526 284.510,208.074 283.690 C 209.622 282.871,211.904 281.629,213.144 280.931 C 217.470 278.496,220.615 276.810,222.800 275.754 C 224.010 275.168,225.360 274.384,225.800 274.010 C 226.240 273.636,227.222 273.083,227.983 272.782 C 228.744 272.481,230.247 271.641,231.323 270.917 C 232.400 270.193,233.505 269.600,233.780 269.600 C 234.055 269.600,235.025 269.060,235.937 268.400 C 236.848 267.740,237.822 267.200,238.102 267.200 C 238.382 267.200,239.508 266.596,240.605 265.858 C 241.702 265.120,243.050 264.376,243.600 264.205 C 244.150 264.035,245.112 263.534,245.738 263.093 C 247.019 262.191,249.841 260.650,253.400 258.909 C 254.720 258.263,256.047 257.435,256.349 257.067 C 256.651 256.700,257.101 256.398,257.349 256.396 C 257.597 256.394,258.610 255.950,259.600 255.410 C 260.590 254.870,262.248 254.000,263.284 253.477 C 264.320 252.953,265.461 252.281,265.820 251.983 C 266.180 251.685,267.582 250.874,268.937 250.182 C 270.292 249.489,272.620 248.280,274.112 247.494 L 276.824 246.065 277.512 247.115 C 278.149 248.087,278.206 250.984,278.279 286.182 C 278.355 323.078,278.425 326.657,279.166 331.631 C 279.212 331.941,281.592 331.578,281.631 331.255 C 281.873 329.236,282.055 329.057,283.804 329.123 C 285.981 329.205,287.200 328.590,287.200 327.410 C 287.200 326.576,287.392 326.399,288.300 326.396 C 291.181 326.384,292.435 325.923,292.662 324.791 C 292.863 323.783,293.074 323.672,295.269 323.424 C 297.452 323.177,297.693 323.053,298.068 321.977 C 298.388 321.059,298.720 320.800,299.579 320.800 C 301.492 320.800,303.186 319.994,303.446 318.960 C 303.638 318.193,303.948 318.000,304.987 318.000 C 305.947 318.000,306.643 317.634,307.644 316.604 C 308.390 315.837,309.360 315.204,309.800 315.199 C 311.333 315.180,312.400 314.702,312.400 314.033 C 312.400 312.952,313.248 312.400,314.906 312.400 C 316.969 312.400,318.000 311.795,318.000 310.586 C 318.000 309.671,318.143 309.600,319.971 309.600 C 322.327 309.600,323.501 308.704,323.247 307.100 C 323.221 306.935,323.803 306.800,324.540 306.800 C 326.675 306.800,328.297 306.065,328.571 304.974 C 328.763 304.210,329.077 304.000,330.027 304.000 C 331.616 304.000,333.478 303.015,333.799 302.004 C 333.986 301.415,334.403 301.200,335.357 301.200 C 336.561 301.200,338.722 299.656,338.221 299.154 C 338.118 299.052,338.598 298.925,339.287 298.872 C 341.121 298.732,342.583 297.912,342.721 296.946 C 342.824 296.226,343.208 296.057,345.265 295.824 C 347.458 295.576,347.729 295.441,348.122 294.402 C 348.492 293.420,348.836 293.215,350.500 292.986 C 352.246 292.746,354.000 291.635,354.000 290.769 C 354.000 290.615,354.630 290.371,355.400 290.226 C 356.679 289.986,356.800 289.844,356.800 288.582 C 356.800 287.822,356.999 287.200,357.243 287.200 C 357.489 287.200,357.574 286.909,357.434 286.543 C 357.224 285.996,357.283 285.971,357.786 286.388 C 358.518 286.996,358.977 286.140,358.822 284.456 C 358.431 280.198,358.419 207.518,358.810 205.800 C 359.125 204.415,359.140 203.493,358.858 202.800 C 358.540 202.019,358.445 201.964,358.425 202.549 " stroke="none" fill="#2ee7bd" fill-rule="evenodd"></path></g></svg>