<svg id="svg" version="1.1" xmlns="http://www.w3.org/2000/svg" xmlns:xlink="http://www.w3.org/1999/xlink" width="400" height="200" viewBox="0, 0, 400,200"><g id="svgg"><path id="path0" d="M75.850 37.044 C 75.603 37.163,75.400 37.337,75.400 37.431 C 75.400 37.524,75.220 37.600,75.000 37.600 C 74.780 37.600,74.600 37.690,74.600 37.800 C 74.600 37.910,74.466 38.000,74.302 38.000 C 74.138 38.000,73.891 38.180,73.754 38.400 C 73.611 38.629,73.287 38.800,72.998 38.800 C 72.720 38.800,72.162 39.025,71.757 39.300 C 71.352 39.575,70.926 39.800,70.811 39.800 C 70.695 39.800,70.600 39.890,70.600 40.000 C 70.600 40.110,70.420 40.200,70.200 40.200 C 69.980 40.200,69.800 40.290,69.800 40.400 C 69.800 40.510,69.620 40.600,69.400 40.600 C 69.180 40.600,68.999 40.668,68.998 40.750 C 68.998 40.833,68.795 40.998,68.548 41.117 C 67.174 41.783,66.353 42.290,66.261 42.529 C 66.204 42.678,65.987 42.800,65.779 42.800 C 65.570 42.800,65.400 42.890,65.400 43.000 C 65.400 43.110,65.220 43.200,65.000 43.200 C 64.780 43.200,64.600 43.280,64.600 43.378 C 64.600 43.475,64.285 43.615,63.900 43.687 C 63.515 43.759,63.200 43.904,63.200 44.009 C 63.200 44.114,63.020 44.200,62.800 44.200 C 62.580 44.200,62.400 44.273,62.400 44.363 C 62.400 44.452,62.085 44.649,61.700 44.800 C 61.315 44.951,61.000 45.148,61.000 45.237 C 61.000 45.327,60.853 45.400,60.673 45.400 C 60.494 45.400,60.201 45.560,60.023 45.756 C 59.846 45.952,59.317 46.280,58.850 46.486 C 58.383 46.692,58.000 46.937,58.000 47.030 C 58.000 47.124,57.820 47.200,57.600 47.200 C 57.380 47.200,57.200 47.290,57.200 47.400 C 57.200 47.510,57.020 47.600,56.800 47.600 C 56.580 47.600,56.400 47.690,56.400 47.800 C 56.400 47.910,56.265 48.000,56.100 48.000 C 55.935 48.000,55.800 48.090,55.800 48.200 C 55.800 48.310,55.620 48.400,55.400 48.400 C 55.180 48.400,55.000 48.481,55.000 48.580 C 55.000 48.679,54.547 48.923,53.992 49.122 C 53.438 49.321,52.812 49.646,52.601 49.842 C 52.390 50.039,52.078 50.200,51.908 50.200 C 51.739 50.200,51.600 50.290,51.600 50.400 C 51.600 50.510,51.465 50.600,51.300 50.600 C 51.135 50.600,51.000 50.671,51.000 50.757 C 51.000 50.843,50.415 51.181,49.700 51.507 C 48.985 51.833,48.400 52.167,48.400 52.250 C 48.400 52.333,48.220 52.400,48.000 52.400 C 47.780 52.400,47.600 52.490,47.600 52.600 C 47.600 52.710,47.440 52.800,47.244 52.800 C 47.048 52.800,46.759 52.980,46.600 53.200 C 46.441 53.420,46.228 53.600,46.126 53.600 C 45.842 53.600,43.709 54.664,43.633 54.843 C 43.597 54.929,43.435 55.000,43.275 55.000 C 43.115 55.000,42.790 55.180,42.554 55.400 C 42.318 55.620,42.007 55.800,41.862 55.800 C 41.718 55.800,41.600 55.880,41.600 55.978 C 41.600 56.076,41.375 56.213,41.100 56.282 C 40.825 56.351,40.600 56.496,40.600 56.604 C 40.600 56.712,40.420 56.800,40.200 56.800 C 39.980 56.800,39.800 56.890,39.800 57.000 C 39.800 57.110,39.620 57.200,39.400 57.200 C 39.180 57.200,39.000 57.290,39.000 57.400 C 39.000 57.510,38.865 57.600,38.700 57.600 C 38.535 57.600,38.400 57.690,38.400 57.800 C 38.400 57.910,38.220 58.000,38.000 58.000 C 37.780 58.000,37.600 58.090,37.600 58.200 C 37.600 58.310,37.420 58.400,37.200 58.400 C 36.980 58.400,36.800 58.480,36.800 58.578 C 36.800 58.676,36.558 58.817,36.262 58.892 C 35.966 58.966,35.480 59.201,35.181 59.413 C 34.883 59.626,34.540 59.800,34.419 59.800 C 34.299 59.800,34.200 59.890,34.200 60.000 C 34.200 60.110,34.085 60.200,33.944 60.200 C 33.803 60.200,33.559 60.380,33.400 60.600 C 33.241 60.820,32.997 61.000,32.857 61.000 C 32.474 61.000,31.000 61.672,31.000 61.847 C 31.000 61.931,30.820 62.000,30.600 62.000 C 30.380 62.000,30.200 62.073,30.200 62.163 C 30.200 62.252,29.885 62.449,29.500 62.600 C 29.115 62.751,28.800 62.948,28.800 63.037 C 28.800 63.127,28.620 63.200,28.400 63.200 C 28.180 63.200,28.000 63.273,28.000 63.362 C 28.000 63.450,27.620 63.691,27.155 63.896 C 26.690 64.101,26.133 64.433,25.917 64.634 C 25.701 64.836,25.407 65.000,25.262 65.000 C 25.118 65.000,25.000 65.090,25.000 65.200 C 25.000 65.310,24.820 65.400,24.600 65.400 C 24.380 65.400,24.200 65.490,24.200 65.600 C 24.200 65.710,24.065 65.800,23.900 65.800 C 23.735 65.800,23.600 65.880,23.600 65.978 C 23.600 66.075,23.301 66.212,22.935 66.280 C 22.569 66.349,22.078 66.584,21.843 66.802 C 21.609 67.021,21.323 67.200,21.208 67.200 C 21.094 67.200,21.000 67.290,21.000 67.400 C 21.000 67.510,20.792 67.600,20.538 67.600 C 20.283 67.600,19.882 67.780,19.646 68.000 C 19.410 68.220,19.123 68.400,19.008 68.400 C 18.197 68.400,19.073 69.062,22.000 70.659 C 22.605 70.989,23.505 71.480,24.000 71.751 C 24.495 72.021,24.990 72.308,25.100 72.390 C 25.210 72.471,26.245 73.036,27.400 73.644 C 29.606 74.806,30.736 75.427,31.463 75.879 C 31.993 76.209,33.716 77.149,36.000 78.355 C 36.935 78.849,37.790 79.323,37.900 79.409 C 38.010 79.495,38.820 79.943,39.700 80.405 C 40.580 80.867,41.570 81.404,41.900 81.598 C 42.742 82.093,44.290 82.952,45.700 83.709 C 46.360 84.062,47.620 84.756,48.500 85.249 C 51.193 86.759,51.671 87.024,52.500 87.470 C 52.940 87.706,53.345 87.945,53.400 88.000 C 53.455 88.055,54.175 88.452,55.000 88.883 C 55.825 89.314,56.792 89.832,57.150 90.033 C 57.508 90.235,58.093 90.565,58.450 90.767 C 58.808 90.969,59.640 91.432,60.300 91.795 C 60.960 92.158,61.905 92.680,62.400 92.954 C 62.895 93.229,63.750 93.700,64.300 94.001 C 64.850 94.303,66.155 95.020,67.200 95.596 C 69.855 97.059,70.862 97.609,72.700 98.598 C 73.580 99.072,74.835 99.768,75.489 100.146 L 76.677 100.833 77.389 100.447 C 77.780 100.235,78.505 99.836,79.000 99.560 C 80.333 98.818,82.144 97.828,83.500 97.098 C 84.160 96.743,85.060 96.248,85.500 95.998 C 87.665 94.768,89.952 93.504,95.100 90.697 C 95.760 90.337,96.750 89.792,97.300 89.485 C 97.850 89.179,98.660 88.742,99.100 88.514 C 99.540 88.286,99.945 88.054,100.000 87.997 C 100.055 87.941,100.550 87.674,101.100 87.405 C 101.650 87.136,102.574 86.619,103.154 86.258 C 103.734 85.896,104.246 85.600,104.293 85.600 C 104.340 85.600,104.901 85.298,105.539 84.930 C 106.178 84.561,107.690 83.739,108.900 83.103 C 110.110 82.466,111.190 81.881,111.300 81.802 C 111.535 81.633,113.288 80.669,115.400 79.547 C 116.225 79.109,116.990 78.684,117.100 78.602 C 117.337 78.426,118.789 77.613,120.600 76.642 C 121.315 76.259,122.665 75.521,123.600 75.003 C 124.535 74.484,125.795 73.788,126.400 73.455 C 128.290 72.415,131.067 70.871,131.850 70.426 C 132.263 70.192,132.918 69.820,133.306 69.600 C 133.694 69.380,134.144 69.200,134.306 69.200 C 134.468 69.200,134.600 69.020,134.600 68.800 C 134.600 68.563,134.467 68.400,134.273 68.400 C 134.094 68.400,133.801 68.236,133.623 68.035 C 133.446 67.834,133.008 67.542,132.650 67.386 C 132.292 67.230,132.000 67.034,132.000 66.951 C 132.000 66.868,131.820 66.800,131.600 66.800 C 131.380 66.800,131.200 66.714,131.200 66.609 C 131.200 66.504,130.885 66.359,130.500 66.287 C 130.115 66.215,129.800 66.075,129.800 65.978 C 129.800 65.880,129.620 65.800,129.400 65.800 C 129.180 65.800,129.000 65.710,129.000 65.600 C 129.000 65.490,128.898 65.400,128.773 65.400 C 128.649 65.400,128.401 65.236,128.223 65.035 C 128.046 64.834,127.360 64.410,126.700 64.092 C 126.040 63.775,125.470 63.444,125.433 63.357 C 125.397 63.271,125.194 63.200,124.983 63.200 C 124.772 63.200,124.600 63.110,124.600 63.000 C 124.600 62.890,124.420 62.800,124.200 62.800 C 123.980 62.800,123.800 62.710,123.800 62.600 C 123.800 62.490,123.665 62.400,123.500 62.400 C 123.335 62.400,123.200 62.310,123.200 62.200 C 123.200 62.090,123.059 62.000,122.886 62.000 C 122.713 62.000,122.439 61.867,122.277 61.705 C 122.115 61.543,121.604 61.298,121.141 61.161 C 120.678 61.023,120.093 60.706,119.841 60.455 C 119.588 60.205,119.302 60.000,119.205 60.000 C 119.108 60.000,118.910 59.884,118.764 59.742 C 118.408 59.395,117.116 58.800,116.720 58.800 C 116.544 58.800,116.400 58.710,116.400 58.600 C 116.400 58.490,116.265 58.400,116.100 58.400 C 115.935 58.400,115.800 58.310,115.800 58.200 C 115.800 58.090,115.640 58.000,115.444 58.000 C 115.248 58.000,114.959 57.820,114.800 57.600 C 114.641 57.380,114.352 57.200,114.156 57.200 C 113.960 57.200,113.800 57.131,113.800 57.047 C 113.800 56.883,112.337 56.200,111.984 56.200 C 111.867 56.200,111.653 56.088,111.508 55.950 C 110.839 55.315,110.371 55.000,110.098 55.000 C 109.934 55.000,109.800 54.910,109.800 54.800 C 109.800 54.690,109.620 54.600,109.400 54.600 C 109.180 54.600,109.000 54.524,109.000 54.430 C 109.000 54.337,108.618 54.101,108.150 53.906 C 106.716 53.309,106.400 53.139,106.400 52.966 C 106.400 52.875,106.265 52.800,106.100 52.800 C 105.935 52.800,105.800 52.710,105.800 52.600 C 105.800 52.490,105.620 52.400,105.400 52.400 C 105.180 52.400,105.000 52.310,105.000 52.200 C 105.000 52.090,104.820 52.000,104.600 52.000 C 104.380 52.000,104.200 51.928,104.200 51.841 C 104.200 51.754,103.795 51.515,103.300 51.311 C 102.805 51.107,102.400 50.863,102.400 50.770 C 102.400 50.676,102.220 50.600,102.000 50.600 C 101.780 50.600,101.600 50.510,101.600 50.400 C 101.600 50.290,101.465 50.200,101.300 50.200 C 101.135 50.200,101.000 50.121,101.000 50.023 C 101.000 49.831,99.003 48.800,98.630 48.800 C 98.504 48.800,98.400 48.710,98.400 48.600 C 98.400 48.490,98.220 48.400,98.000 48.400 C 97.780 48.400,97.600 48.310,97.600 48.200 C 97.600 48.090,97.420 48.000,97.200 48.000 C 96.980 48.000,96.800 47.910,96.800 47.800 C 96.800 47.690,96.665 47.600,96.500 47.600 C 96.335 47.600,96.200 47.510,96.200 47.400 C 96.200 47.290,96.020 47.200,95.800 47.200 C 95.580 47.200,95.400 47.117,95.400 47.014 C 95.400 46.912,95.040 46.670,94.600 46.476 C 94.160 46.282,93.800 46.050,93.800 45.962 C 93.800 45.873,93.665 45.800,93.500 45.800 C 93.335 45.800,93.200 45.710,93.200 45.600 C 93.200 45.490,93.020 45.400,92.800 45.400 C 92.580 45.400,92.400 45.310,92.400 45.200 C 92.400 45.090,92.220 45.000,92.000 45.000 C 91.780 45.000,91.600 44.933,91.600 44.850 C 91.600 44.768,91.015 44.433,90.300 44.107 C 89.585 43.781,89.000 43.443,89.000 43.357 C 89.000 43.271,88.820 43.200,88.600 43.200 C 88.380 43.200,88.200 43.110,88.200 43.000 C 88.200 42.890,87.995 42.800,87.744 42.800 C 87.493 42.800,87.159 42.620,87.000 42.400 C 86.841 42.180,86.640 42.000,86.552 42.000 C 86.464 42.000,86.036 41.775,85.600 41.500 C 85.164 41.225,84.671 41.000,84.504 41.000 C 84.337 41.000,84.200 40.910,84.200 40.800 C 84.200 40.690,84.065 40.600,83.900 40.600 C 83.735 40.600,83.600 40.510,83.600 40.400 C 83.600 40.290,83.420 40.200,83.200 40.200 C 82.980 40.200,82.800 40.110,82.800 40.000 C 82.800 39.890,82.640 39.800,82.444 39.800 C 82.248 39.800,81.959 39.620,81.801 39.401 C 81.642 39.181,81.218 38.946,80.856 38.879 C 80.495 38.811,80.200 38.675,80.200 38.578 C 80.200 38.480,80.020 38.400,79.800 38.400 C 79.580 38.400,79.400 38.332,79.400 38.249 C 79.400 38.166,79.108 37.968,78.750 37.810 C 78.392 37.652,77.926 37.360,77.712 37.161 C 77.282 36.760,76.536 36.713,75.850 37.044 M185.250 81.732 C 184.893 81.877,184.883 115.803,185.240 116.160 C 185.413 116.333,186.760 116.400,190.040 116.400 L 194.600 116.400 194.600 108.400 C 194.600 104.000,194.668 100.399,194.750 100.398 C 194.833 100.397,195.248 100.066,195.674 99.663 C 196.316 99.055,196.625 98.915,197.474 98.849 C 199.588 98.683,199.650 98.954,199.742 108.754 L 199.814 116.407 204.557 116.354 L 209.300 116.300 209.352 107.612 C 209.386 101.955,209.334 98.854,209.202 98.722 C 209.091 98.611,209.000 98.136,209.000 97.667 C 209.000 94.659,206.187 91.000,203.876 91.000 C 203.614 91.000,203.400 90.910,203.400 90.800 C 203.400 90.678,202.500 90.600,201.100 90.600 C 199.700 90.600,198.800 90.678,198.800 90.800 C 198.800 90.910,198.544 91.000,198.231 91.000 C 197.560 91.000,196.322 91.527,195.050 92.354 L 194.600 92.646 194.600 87.123 L 194.600 81.600 190.050 81.616 C 187.548 81.624,185.388 81.677,185.250 81.732 M322.133 81.733 C 321.909 81.958,321.975 110.161,322.200 110.300 C 322.310 110.368,322.400 110.773,322.400 111.200 C 322.400 111.627,322.490 112.032,322.600 112.100 C 322.710 112.168,322.800 112.398,322.800 112.612 C 322.800 112.825,322.890 113.000,323.000 113.000 C 323.110 113.000,323.200 113.180,323.200 113.400 C 323.200 113.620,323.290 113.800,323.400 113.800 C 323.510 113.800,323.600 113.931,323.600 114.091 C 323.600 114.545,325.405 116.211,326.034 116.337 C 326.345 116.399,326.600 116.529,326.600 116.625 C 326.600 116.721,326.852 116.800,327.160 116.800 C 327.468 116.800,327.816 116.896,327.933 117.013 C 328.318 117.398,334.200 117.012,334.200 116.601 C 334.200 116.516,334.380 116.400,334.600 116.342 C 335.032 116.229,335.183 115.137,334.800 114.900 C 334.690 114.832,334.600 114.292,334.600 113.700 C 334.600 113.108,334.510 112.568,334.400 112.500 C 334.290 112.432,334.200 111.887,334.200 111.288 C 334.200 110.690,334.110 110.200,334.000 110.200 C 333.890 110.200,333.800 110.020,333.800 109.800 C 333.800 109.480,333.667 109.400,333.135 109.400 C 332.698 109.400,332.320 109.241,332.035 108.937 L 331.600 108.474 331.600 95.037 L 331.600 81.600 326.933 81.600 C 324.367 81.600,322.207 81.660,322.133 81.733 M169.500 83.400 C 169.432 83.510,168.980 83.600,168.495 83.600 C 167.156 83.600,163.200 85.117,163.200 85.630 C 163.200 85.723,163.020 85.800,162.800 85.800 C 162.580 85.800,162.398 85.868,162.395 85.950 C 162.392 86.033,161.918 86.455,161.341 86.889 C 160.308 87.665,158.400 89.925,158.400 90.371 C 158.400 90.497,158.310 90.600,158.200 90.600 C 158.090 90.600,158.000 90.773,158.000 90.983 C 158.000 91.194,157.933 91.397,157.850 91.433 C 157.341 91.660,156.200 94.911,156.200 96.136 C 156.200 96.611,156.110 97.000,156.000 97.000 C 155.875 97.000,155.800 98.263,155.800 100.388 C 155.800 102.431,155.879 103.825,156.000 103.900 C 156.110 103.968,156.201 104.356,156.201 104.762 C 156.203 106.233,157.480 109.548,158.450 110.603 C 158.643 110.812,158.800 111.061,158.800 111.156 C 158.800 111.409,160.972 113.620,161.900 114.312 C 163.191 115.275,165.683 116.400,166.524 116.400 C 166.786 116.400,167.000 116.490,167.000 116.600 C 167.000 116.710,167.400 116.800,167.888 116.800 C 168.377 116.800,168.832 116.890,168.900 117.000 C 168.972 117.116,170.065 117.200,171.500 117.200 C 172.935 117.200,174.028 117.116,174.100 117.000 C 174.168 116.890,174.573 116.800,175.000 116.800 C 175.427 116.800,175.832 116.710,175.900 116.600 C 175.968 116.490,176.192 116.400,176.398 116.400 C 176.897 116.400,179.182 115.332,179.805 114.809 C 182.716 112.359,182.966 111.853,181.847 110.680 C 181.543 110.361,181.026 109.740,180.698 109.300 C 180.370 108.860,179.873 108.275,179.593 108.000 C 179.313 107.725,178.879 107.208,178.629 106.850 C 178.304 106.387,178.016 106.200,177.628 106.200 C 177.290 106.200,176.820 106.446,176.387 106.850 C 176.004 107.208,175.445 107.628,175.145 107.784 C 174.845 107.940,174.600 108.142,174.600 108.234 C 174.600 108.325,174.428 108.400,174.217 108.400 C 174.006 108.400,173.799 108.503,173.757 108.629 C 173.650 108.950,170.280 108.960,169.960 108.640 C 169.828 108.508,169.603 108.400,169.460 108.400 C 169.098 108.400,166.800 106.067,166.800 105.700 C 166.800 105.535,166.730 105.400,166.644 105.400 C 165.908 105.400,165.477 98.389,166.101 96.575 C 166.409 95.681,166.820 94.779,167.000 94.600 C 167.055 94.545,167.218 94.275,167.362 94.000 C 167.505 93.725,167.938 93.275,168.323 93.000 C 168.709 92.725,169.147 92.388,169.298 92.250 C 169.448 92.113,169.713 92.000,169.886 92.000 C 170.059 92.000,170.200 91.910,170.200 91.800 C 170.200 91.682,170.898 91.600,171.893 91.600 L 173.586 91.600 175.274 92.700 C 177.322 94.035,177.364 94.037,178.373 92.850 C 180.404 90.459,180.812 89.950,181.030 89.539 C 181.158 89.298,181.429 88.954,181.631 88.777 C 182.218 88.261,182.099 87.381,181.363 86.800 C 181.015 86.525,180.617 86.188,180.479 86.050 C 180.341 85.913,180.132 85.800,180.014 85.800 C 179.896 85.800,179.799 85.733,179.798 85.650 C 179.798 85.567,179.595 85.401,179.348 85.280 C 178.862 85.041,177.333 84.270,176.718 83.953 C 176.507 83.845,175.807 83.708,175.162 83.650 C 174.517 83.591,173.941 83.466,173.883 83.372 C 173.733 83.129,169.651 83.156,169.500 83.400 M241.304 85.320 C 241.137 85.721,241.000 86.483,241.000 87.013 C 241.000 87.543,240.910 88.032,240.800 88.100 C 240.690 88.168,240.600 88.650,240.600 89.172 C 240.600 90.891,240.360 91.132,238.516 91.258 C 236.331 91.408,236.363 91.347,236.439 95.234 C 236.510 98.881,236.379 98.633,238.296 98.756 L 239.800 98.853 239.800 104.114 C 239.800 107.407,239.875 109.423,240.000 109.500 C 240.110 109.568,240.200 109.890,240.200 110.215 C 240.200 110.540,240.290 110.984,240.400 111.203 C 240.510 111.421,240.690 111.779,240.800 111.997 C 240.910 112.216,241.000 112.531,241.000 112.697 C 241.000 112.864,241.068 113.000,241.151 113.000 C 241.234 113.000,241.413 113.248,241.547 113.550 C 242.038 114.654,244.178 116.400,245.039 116.400 C 245.238 116.400,245.400 116.490,245.400 116.600 C 245.400 116.710,245.755 116.800,246.188 116.800 C 246.622 116.800,247.032 116.890,247.100 117.000 C 247.172 117.117,248.298 117.200,249.800 117.200 C 251.302 117.200,252.428 117.117,252.500 117.000 C 252.568 116.890,252.978 116.800,253.412 116.800 C 253.845 116.800,254.200 116.710,254.200 116.600 C 254.200 116.490,254.505 116.400,254.879 116.400 C 255.313 116.400,255.601 116.286,255.679 116.084 C 255.868 115.589,255.821 114.637,255.600 114.500 C 255.490 114.432,255.400 113.982,255.400 113.500 C 255.400 113.018,255.310 112.568,255.200 112.500 C 255.090 112.432,255.000 112.027,255.000 111.600 C 255.000 111.173,254.910 110.768,254.800 110.700 C 254.690 110.632,254.600 110.312,254.600 109.988 C 254.600 109.322,254.586 109.318,252.532 109.393 C 250.906 109.453,249.800 108.997,249.800 108.266 C 249.800 108.023,249.710 107.768,249.600 107.700 C 249.477 107.624,249.400 105.903,249.400 103.204 L 249.400 98.831 252.108 98.765 C 254.244 98.714,254.856 98.637,255.008 98.400 C 255.176 98.138,255.224 98.137,255.388 98.393 C 255.515 98.590,256.038 98.712,256.988 98.765 L 258.400 98.845 258.400 103.811 C 258.400 106.542,258.477 108.824,258.571 108.882 C 258.666 108.941,258.794 109.481,258.856 110.083 C 259.089 112.340,260.907 115.111,262.736 115.996 C 263.266 116.253,263.856 116.539,264.047 116.632 C 264.238 116.724,264.660 116.800,264.985 116.800 C 265.310 116.800,265.632 116.890,265.700 117.000 C 265.772 117.116,266.865 117.200,268.300 117.200 C 269.735 117.200,270.828 117.116,270.900 117.000 C 270.968 116.890,271.418 116.800,271.900 116.800 C 272.382 116.800,272.832 116.710,272.900 116.600 C 272.968 116.490,273.288 116.400,273.612 116.400 L 274.200 116.400 274.200 115.000 C 274.200 114.230,274.122 113.600,274.028 113.600 C 273.933 113.600,273.794 112.993,273.720 112.250 C 273.605 111.109,273.284 109.743,273.052 109.412 C 273.018 109.363,272.205 109.341,271.245 109.363 C 268.283 109.429,268.007 108.874,268.003 102.850 L 268.000 98.800 270.413 98.800 C 273.827 98.800,273.600 99.076,273.600 94.914 C 273.600 90.826,273.913 91.200,270.489 91.200 L 268.010 91.200 267.955 87.950 L 267.900 84.700 264.126 84.645 C 259.921 84.585,259.800 84.618,259.800 85.813 C 259.800 86.233,259.721 86.625,259.624 86.685 C 259.528 86.745,259.396 87.313,259.332 87.947 C 259.269 88.581,259.157 89.560,259.085 90.123 L 258.954 91.146 257.252 91.253 C 256.197 91.318,255.489 91.455,255.393 91.612 C 255.271 91.808,255.162 91.791,254.904 91.532 C 254.628 91.257,254.130 91.200,251.991 91.200 L 249.410 91.200 249.355 87.950 L 249.300 84.700 245.454 84.646 L 241.609 84.591 241.304 85.320 M221.800 90.800 C 221.800 90.910,221.463 90.999,221.050 90.998 C 220.155 90.996,217.600 91.623,217.600 91.844 C 217.600 91.930,217.375 92.000,217.100 92.000 C 216.825 92.000,216.600 92.090,216.600 92.200 C 216.600 92.310,216.420 92.400,216.200 92.400 C 215.980 92.400,215.800 92.490,215.800 92.600 C 215.800 92.710,215.620 92.800,215.400 92.800 C 215.180 92.800,215.000 92.868,215.000 92.951 C 215.000 93.034,214.707 93.230,214.350 93.385 C 213.536 93.739,213.384 93.966,213.541 94.598 C 213.705 95.264,215.690 99.117,216.015 99.400 C 216.078 99.455,216.187 99.658,216.258 99.850 C 216.400 100.234,217.486 100.347,217.700 100.000 C 217.768 99.890,217.998 99.800,218.212 99.800 C 218.425 99.800,218.600 99.710,218.600 99.600 C 218.600 99.490,218.780 99.400,219.000 99.400 C 219.220 99.400,219.400 99.330,219.400 99.244 C 219.400 98.291,224.482 98.169,225.288 99.103 L 225.803 99.700 225.051 99.763 C 224.638 99.798,224.215 99.911,224.110 100.013 C 224.005 100.116,223.493 100.200,222.972 100.200 C 222.450 100.200,221.968 100.290,221.900 100.400 C 221.832 100.510,221.510 100.600,221.185 100.600 C 220.860 100.600,220.438 100.682,220.247 100.782 C 220.056 100.881,219.405 101.110,218.800 101.289 C 217.414 101.699,216.600 102.054,216.600 102.249 C 216.600 102.332,216.476 102.400,216.324 102.400 C 215.919 102.400,213.600 104.665,213.600 105.061 C 213.600 105.248,213.510 105.400,213.400 105.400 C 213.290 105.400,213.200 105.580,213.200 105.800 C 213.200 106.020,213.110 106.200,213.000 106.200 C 212.890 106.200,212.800 106.510,212.800 106.888 C 212.800 107.267,212.710 107.632,212.600 107.700 C 212.490 107.768,212.400 108.403,212.400 109.112 C 212.400 109.837,212.487 110.400,212.600 110.400 C 212.710 110.400,212.800 110.755,212.800 111.188 C 212.800 111.622,212.890 112.032,213.000 112.100 C 213.110 112.168,213.200 112.398,213.200 112.612 C 213.200 112.825,213.268 113.000,213.351 113.000 C 213.434 113.000,213.622 113.271,213.769 113.602 C 214.102 114.356,215.545 115.811,216.317 116.173 C 216.638 116.324,217.056 116.526,217.247 116.623 C 217.438 116.721,217.770 116.800,217.985 116.800 C 218.200 116.800,218.432 116.890,218.500 117.000 C 218.568 117.110,219.465 117.200,220.500 117.200 C 221.535 117.200,222.432 117.110,222.500 117.000 C 222.568 116.890,222.888 116.800,223.212 116.800 C 223.535 116.800,223.800 116.710,223.800 116.600 C 223.800 116.490,223.945 116.400,224.123 116.400 C 224.535 116.400,226.400 115.391,226.400 115.168 C 226.400 115.076,226.580 115.000,226.800 115.000 C 227.084 115.000,227.200 115.133,227.200 115.460 C 227.200 116.345,227.455 116.400,231.540 116.400 L 235.400 116.400 235.400 107.512 C 235.400 101.802,235.328 98.579,235.200 98.500 C 235.090 98.432,235.000 98.110,235.000 97.785 C 235.000 97.460,234.920 97.038,234.823 96.847 C 234.726 96.656,234.388 95.974,234.073 95.331 C 233.552 94.268,232.040 92.400,231.701 92.400 C 231.624 92.400,231.316 92.225,231.015 92.011 C 230.329 91.522,228.869 91.007,228.162 91.003 C 227.866 91.001,227.568 90.910,227.500 90.800 C 227.427 90.682,226.231 90.600,224.588 90.600 C 222.863 90.600,221.800 90.676,221.800 90.800 M284.700 90.800 C 284.632 90.910,284.323 91.000,284.013 91.000 C 283.183 91.000,280.200 92.291,280.200 92.650 C 280.200 92.732,280.088 92.803,279.950 92.806 C 279.291 92.821,276.200 96.400,276.200 97.147 C 276.200 97.286,276.110 97.400,276.000 97.400 C 275.890 97.400,275.800 97.575,275.800 97.788 C 275.800 98.002,275.710 98.232,275.600 98.300 C 275.490 98.368,275.400 98.643,275.400 98.912 C 275.400 99.180,275.310 99.400,275.200 99.400 C 275.090 99.400,275.000 99.742,275.000 100.160 C 275.000 100.578,274.905 101.015,274.788 101.132 C 274.402 101.518,274.784 107.828,275.220 108.290 C 275.319 108.395,275.399 108.620,275.397 108.790 C 275.374 111.155,280.791 116.400,283.257 116.400 C 283.446 116.400,283.600 116.490,283.600 116.600 C 283.600 116.710,283.942 116.800,284.360 116.800 C 284.778 116.800,285.216 116.896,285.333 117.013 C 285.693 117.373,292.000 116.989,292.000 116.606 C 292.000 116.522,292.343 116.407,292.763 116.350 C 293.454 116.258,296.157 115.103,296.400 114.797 C 296.455 114.728,296.657 114.613,296.850 114.542 C 297.235 114.400,297.372 112.800,297.000 112.800 C 296.890 112.800,296.800 112.620,296.800 112.400 C 296.800 112.180,296.733 111.999,296.650 111.998 C 296.568 111.996,296.321 111.614,296.103 111.148 C 295.885 110.681,295.660 110.255,295.603 110.200 C 295.546 110.145,295.365 109.830,295.200 109.500 C 295.035 109.170,294.794 108.788,294.664 108.650 C 294.397 108.367,293.200 108.307,293.200 108.577 C 293.200 108.674,292.998 108.800,292.750 108.856 C 292.189 108.985,291.014 109.397,290.553 109.627 C 290.068 109.868,287.600 109.846,287.600 109.600 C 287.600 109.490,287.330 109.400,287.000 109.400 C 286.670 109.400,286.400 109.310,286.400 109.200 C 286.400 109.090,286.275 109.000,286.121 109.000 C 285.727 109.000,284.600 107.903,284.600 107.520 C 284.600 107.344,284.510 107.200,284.400 107.200 C 284.290 107.200,284.200 107.111,284.200 107.003 C 284.200 106.878,286.712 106.786,291.047 106.753 L 297.893 106.700 298.078 105.900 C 298.450 104.291,298.236 98.993,297.780 98.510 C 297.681 98.405,297.600 98.157,297.600 97.957 C 297.600 97.758,297.521 97.438,297.423 97.247 C 297.326 97.056,297.125 96.630,296.977 96.300 C 295.708 93.475,292.636 91.015,290.362 91.003 C 290.066 91.001,289.768 90.910,289.700 90.800 C 289.629 90.685,288.569 90.600,287.200 90.600 C 285.831 90.600,284.771 90.685,284.700 90.800 M314.900 90.800 C 314.832 90.910,314.625 91.000,314.441 91.000 C 313.555 91.000,311.162 92.588,310.639 93.524 C 310.285 94.156,309.800 93.505,309.800 92.397 C 309.800 91.711,309.711 91.409,309.484 91.321 C 309.012 91.141,302.140 91.181,301.848 91.366 C 301.650 91.492,301.608 94.135,301.648 103.913 L 301.700 116.300 306.450 116.354 L 311.200 116.407 311.200 109.523 C 311.200 102.815,311.211 102.617,311.639 101.814 C 312.141 100.874,313.629 99.400,314.076 99.400 C 314.241 99.400,314.432 99.310,314.500 99.200 C 314.674 98.919,317.525 98.950,317.986 99.238 C 318.445 99.525,319.000 99.169,319.000 98.587 C 319.000 98.387,319.090 98.168,319.200 98.100 C 319.310 98.032,319.400 97.582,319.400 97.100 C 319.400 96.618,319.490 96.168,319.600 96.100 C 319.710 96.032,319.800 95.582,319.800 95.100 C 319.800 94.618,319.890 94.168,320.000 94.100 C 320.110 94.032,320.200 93.616,320.200 93.175 C 320.200 92.734,320.290 92.206,320.399 92.001 C 320.683 91.471,320.438 91.000,319.879 91.000 C 319.615 91.000,319.400 90.910,319.400 90.800 C 319.400 90.679,318.537 90.600,317.212 90.600 C 315.969 90.600,314.970 90.686,314.900 90.800 M334.731 91.341 C 334.339 91.443,334.412 92.819,334.817 92.967 C 334.918 93.003,335.000 93.162,335.000 93.319 C 335.000 93.477,335.079 93.762,335.177 93.953 C 335.379 94.350,335.785 95.313,335.999 95.900 C 336.079 96.120,336.292 96.641,336.472 97.057 C 336.653 97.473,336.800 97.905,336.800 98.016 C 336.800 98.128,336.980 98.592,337.200 99.047 C 337.420 99.503,337.600 99.985,337.600 100.119 C 337.600 100.253,337.793 100.753,338.028 101.231 C 338.489 102.166,338.573 102.372,339.108 103.900 C 339.301 104.450,339.634 105.305,339.849 105.800 C 340.331 106.909,340.608 107.578,340.803 108.100 C 340.885 108.320,341.090 108.860,341.258 109.300 C 341.426 109.740,341.761 110.640,342.002 111.300 C 342.417 112.439,343.032 113.887,343.422 114.647 C 343.915 115.608,342.445 117.999,341.362 118.000 C 341.176 118.000,340.968 118.090,340.900 118.200 C 340.832 118.310,340.602 118.400,340.388 118.400 C 340.175 118.400,340.000 118.310,340.000 118.200 C 340.000 118.090,339.550 118.000,339.000 118.000 C 338.143 118.000,338.000 118.056,338.000 118.388 C 338.000 118.602,337.910 118.832,337.800 118.900 C 337.690 118.968,337.600 119.328,337.600 119.700 C 337.600 120.072,337.510 120.432,337.400 120.500 C 337.290 120.568,337.200 120.963,337.200 121.378 C 337.200 121.794,337.134 122.199,337.053 122.280 C 336.799 122.535,336.438 124.687,336.600 124.985 C 336.991 125.705,341.787 126.088,343.947 125.572 C 347.000 124.843,349.463 122.734,351.038 119.499 C 351.306 118.950,351.621 118.320,351.739 118.100 C 351.953 117.701,352.298 116.904,352.627 116.050 C 352.722 115.803,352.885 115.397,352.989 115.150 C 353.093 114.903,353.328 114.160,353.511 113.500 C 353.694 112.840,353.924 112.144,354.022 111.953 C 354.120 111.762,354.200 111.424,354.200 111.203 C 354.200 110.981,354.290 110.800,354.400 110.800 C 354.510 110.800,354.600 110.619,354.600 110.397 C 354.600 110.176,354.690 109.816,354.800 109.597 C 354.910 109.379,355.090 109.021,355.200 108.803 C 355.310 108.584,355.400 108.242,355.400 108.043 C 355.400 107.843,355.475 107.594,355.566 107.490 C 355.658 107.386,355.893 106.715,356.088 106.000 C 356.443 104.706,356.687 104.014,357.023 103.353 C 357.121 103.162,357.200 102.842,357.200 102.643 C 357.200 102.443,357.274 102.194,357.365 102.090 C 357.456 101.985,357.652 101.495,357.801 101.000 C 357.950 100.505,358.130 100.010,358.201 99.900 C 358.272 99.790,358.489 99.115,358.684 98.400 C 358.878 97.685,359.119 96.944,359.219 96.753 C 359.318 96.562,359.400 96.224,359.400 96.003 C 359.400 95.781,359.490 95.600,359.600 95.600 C 359.710 95.600,359.800 95.419,359.800 95.197 C 359.800 94.976,359.879 94.638,359.977 94.447 C 360.520 93.380,361.067 91.600,360.902 91.435 C 360.735 91.267,352.688 91.135,352.069 91.290 C 351.733 91.374,351.587 91.594,351.498 92.152 C 351.432 92.563,351.293 93.056,351.189 93.247 C 351.085 93.438,351.000 93.815,351.000 94.085 C 351.000 94.355,350.910 94.632,350.800 94.700 C 350.690 94.768,350.600 95.133,350.600 95.512 C 350.600 95.890,350.510 96.200,350.400 96.200 C 350.290 96.200,350.200 96.510,350.200 96.888 C 350.200 97.267,350.110 97.632,350.000 97.700 C 349.890 97.768,349.800 98.090,349.800 98.415 C 349.800 98.740,349.714 99.162,349.609 99.353 C 349.330 99.862,348.800 102.224,348.800 102.963 C 348.800 103.313,348.710 103.600,348.600 103.600 C 348.490 103.600,348.400 103.960,348.400 104.400 C 348.400 104.840,348.310 105.200,348.200 105.200 C 348.090 105.200,348.000 104.890,348.000 104.512 C 348.000 104.133,347.910 103.768,347.800 103.700 C 347.690 103.632,347.600 103.267,347.600 102.888 C 347.600 102.510,347.510 102.200,347.400 102.200 C 347.290 102.200,347.200 101.930,347.200 101.600 C 347.200 101.270,347.110 101.000,347.000 101.000 C 346.890 101.000,346.800 100.730,346.800 100.400 C 346.800 100.070,346.731 99.800,346.647 99.800 C 346.563 99.800,346.318 99.028,346.102 98.084 C 345.886 97.140,345.640 96.325,345.555 96.272 C 345.470 96.219,345.400 95.962,345.400 95.700 C 345.400 95.438,345.310 95.168,345.200 95.100 C 345.090 95.032,345.000 94.757,345.000 94.488 C 345.000 94.220,344.910 94.000,344.800 94.000 C 344.690 94.000,344.600 93.735,344.600 93.412 C 344.600 93.088,344.510 92.768,344.400 92.700 C 344.290 92.632,344.200 92.322,344.200 92.012 C 344.200 91.595,344.082 91.415,343.750 91.326 C 343.228 91.186,335.281 91.200,334.731 91.341 M288.590 98.195 C 289.047 98.439,289.800 99.695,289.800 100.211 C 289.800 100.578,289.639 100.600,287.000 100.600 C 283.984 100.600,283.880 100.557,284.450 99.555 C 285.174 98.282,287.392 97.553,288.590 98.195 M225.800 107.176 C 225.800 109.479,222.960 110.582,221.802 108.730 C 221.617 108.432,221.608 108.297,221.773 108.242 C 221.898 108.201,222.000 108.080,222.000 107.974 C 222.000 107.715,222.928 106.800,223.191 106.800 C 223.306 106.800,223.400 106.723,223.400 106.628 C 223.400 106.534,223.782 106.365,224.250 106.252 C 225.817 105.876,225.800 105.866,225.800 107.176 M132.250 134.099 C 131.879 134.521,131.947 134.637,132.400 134.354 C 132.620 134.216,132.800 134.035,132.800 133.952 C 132.800 133.714,132.524 133.788,132.250 134.099 M22.000 134.752 C 22.000 134.835,22.180 135.016,22.400 135.154 C 22.865 135.444,22.927 135.299,22.514 134.886 C 22.199 134.570,22.000 134.519,22.000 134.752 M131.000 134.767 C 131.000 134.895,130.865 135.000,130.700 135.000 C 130.535 135.000,130.400 135.090,130.400 135.200 C 130.400 135.310,130.479 135.400,130.576 135.400 C 130.836 135.400,131.277 134.811,131.129 134.662 C 131.058 134.591,131.000 134.638,131.000 134.767 M29.900 139.200 C 29.968 139.310,30.146 139.400,30.295 139.400 C 30.444 139.400,30.607 139.513,30.656 139.650 C 30.705 139.787,30.813 139.837,30.896 139.760 C 31.102 139.569,30.507 139.000,30.102 139.000 C 29.923 139.000,29.832 139.090,29.900 139.200 M55.000 152.968 C 55.000 153.164,56.009 153.657,56.141 153.526 C 56.190 153.477,56.043 153.377,55.815 153.305 C 55.587 153.232,55.400 153.089,55.400 152.987 C 55.400 152.884,55.310 152.800,55.200 152.800 C 55.090 152.800,55.000 152.876,55.000 152.968 " stroke="none" fill="#1e2458" fill-rule="evenodd"></path><path id="path1" d="M18.800 84.958 L 18.800 100.717 19.850 101.261 C 20.428 101.560,21.195 101.983,21.555 102.201 C 21.915 102.419,23.085 103.063,24.155 103.632 C 25.225 104.201,26.685 104.989,27.400 105.383 C 28.115 105.778,28.970 106.235,29.300 106.400 C 29.630 106.565,29.945 106.752,30.000 106.817 C 30.055 106.881,31.076 107.467,32.268 108.117 C 33.461 108.768,34.856 109.532,35.368 109.815 C 35.881 110.099,37.110 110.761,38.100 111.287 C 39.090 111.813,39.990 112.311,40.100 112.393 C 40.210 112.475,40.885 112.859,41.600 113.247 C 42.943 113.975,44.021 114.567,46.119 115.726 C 46.790 116.097,47.442 116.400,47.569 116.400 C 47.742 116.400,47.799 112.443,47.798 100.750 L 47.795 85.100 47.148 84.685 C 46.791 84.457,46.208 84.143,45.850 83.986 C 45.493 83.830,45.200 83.634,45.200 83.551 C 45.200 83.468,45.020 83.400,44.800 83.400 C 44.580 83.400,44.399 83.333,44.398 83.250 C 44.398 83.168,44.195 83.006,43.948 82.891 C 43.254 82.567,41.312 81.515,41.200 81.402 C 41.145 81.346,40.425 80.948,39.600 80.517 C 38.109 79.738,37.486 79.396,36.050 78.567 C 35.638 78.329,34.760 77.846,34.100 77.493 C 31.151 75.916,30.232 75.412,29.241 74.826 C 28.659 74.482,28.096 74.200,27.991 74.200 C 27.886 74.200,27.800 74.110,27.800 74.000 C 27.800 73.890,27.627 73.800,27.417 73.800 C 27.206 73.800,27.003 73.733,26.967 73.650 C 26.905 73.510,26.259 73.144,24.000 71.969 C 23.505 71.711,23.055 71.455,23.000 71.400 C 22.945 71.345,22.540 71.109,22.100 70.875 C 21.660 70.641,20.787 70.168,20.161 69.825 C 19.534 69.481,18.972 69.200,18.911 69.200 C 18.850 69.200,18.800 76.291,18.800 84.958 M76.695 148.400 C 76.695 157.035,76.720 160.568,76.750 156.250 C 76.780 151.933,76.780 144.868,76.750 140.550 C 76.720 136.233,76.695 139.765,76.695 148.400 " stroke="none" fill="#fae75c" fill-rule="evenodd"></path><path id="path2" d="M18.800 117.053 L 18.800 133.106 19.601 133.453 C 20.042 133.644,20.496 133.800,20.610 133.800 C 20.724 133.800,21.010 133.980,21.246 134.200 C 21.482 134.420,21.794 134.600,21.940 134.600 C 22.085 134.600,22.486 134.870,22.831 135.200 C 23.177 135.530,23.671 135.800,23.930 135.800 C 24.188 135.800,24.400 135.886,24.400 135.991 C 24.400 136.096,24.715 136.241,25.100 136.313 C 25.485 136.385,25.800 136.525,25.800 136.622 C 25.800 136.720,25.974 136.800,26.187 136.800 C 26.399 136.800,26.630 136.980,26.700 137.200 C 26.770 137.420,27.001 137.600,27.213 137.600 C 27.426 137.600,27.600 137.690,27.600 137.800 C 27.600 137.910,27.780 138.000,28.000 138.000 C 28.220 138.000,28.400 138.095,28.400 138.212 C 28.400 138.328,28.481 138.374,28.579 138.313 C 28.678 138.252,28.806 138.328,28.865 138.481 C 28.924 138.635,29.322 138.819,29.750 138.892 C 30.178 138.964,30.654 139.198,30.808 139.412 C 30.962 139.625,31.209 139.800,31.356 139.800 C 31.503 139.800,31.568 139.890,31.500 140.000 C 31.432 140.110,31.573 140.200,31.815 140.200 C 32.056 140.200,32.399 140.368,32.577 140.573 C 32.755 140.778,33.193 141.011,33.550 141.089 C 33.908 141.168,34.200 141.315,34.200 141.416 C 34.200 141.517,34.380 141.600,34.600 141.600 C 34.820 141.600,35.000 141.690,35.000 141.800 C 35.000 141.910,35.180 142.000,35.400 142.000 C 35.620 142.000,35.800 142.090,35.800 142.200 C 35.800 142.310,35.958 142.400,36.152 142.400 C 36.345 142.400,36.616 142.580,36.754 142.800 C 36.891 143.020,37.189 143.200,37.416 143.200 C 37.643 143.200,37.954 143.313,38.107 143.450 C 38.839 144.106,39.025 144.200,39.592 144.200 C 40.067 144.200,40.200 144.288,40.200 144.600 C 40.200 144.867,40.333 145.000,40.600 145.000 C 40.820 145.000,41.000 145.090,41.000 145.200 C 41.000 145.310,41.173 145.400,41.383 145.400 C 41.594 145.400,41.797 145.468,41.833 145.550 C 41.940 145.789,43.130 146.400,43.489 146.400 C 43.669 146.400,44.010 146.580,44.246 146.800 C 44.482 147.020,44.819 147.200,44.994 147.200 C 45.169 147.200,45.441 147.380,45.600 147.600 C 45.759 147.820,45.967 148.000,46.063 148.000 C 46.160 148.000,46.509 148.193,46.840 148.428 C 47.799 149.112,47.794 149.206,47.797 132.650 C 47.799 124.043,47.849 117.000,47.908 117.000 C 47.967 117.000,48.395 117.185,48.858 117.411 C 49.697 117.821,49.698 117.821,49.200 117.416 C 48.925 117.192,48.599 117.007,48.474 117.004 C 48.350 117.002,48.138 116.866,48.002 116.702 C 47.866 116.538,47.677 116.452,47.582 116.511 C 47.487 116.570,47.025 116.402,46.555 116.137 C 46.085 115.873,45.340 115.453,44.900 115.204 C 42.375 113.774,38.676 111.737,37.193 110.960 C 36.254 110.468,35.264 109.927,34.993 109.757 C 34.722 109.588,33.960 109.155,33.300 108.795 C 32.640 108.435,31.650 107.892,31.100 107.587 C 30.550 107.282,29.695 106.816,29.200 106.551 C 28.705 106.286,27.940 105.862,27.500 105.608 C 26.741 105.170,26.284 104.918,23.200 103.247 C 22.485 102.859,21.802 102.466,21.682 102.373 C 21.366 102.128,19.128 101.006,18.950 101.003 C 18.868 101.001,18.800 108.224,18.800 117.053 M49.900 117.945 C 50.010 118.058,50.910 118.581,51.900 119.105 C 52.890 119.630,53.835 120.154,54.000 120.269 C 54.267 120.455,54.267 120.443,54.000 120.162 C 53.835 119.989,52.800 119.372,51.700 118.793 C 50.600 118.213,49.790 117.831,49.900 117.945 M55.000 120.784 C 55.481 121.176,55.800 121.304,55.800 121.105 C 55.800 121.053,55.508 120.868,55.150 120.693 L 54.500 120.376 55.000 120.784 M56.000 121.270 C 56.000 121.323,56.822 121.824,57.827 122.383 C 59.611 123.376,60.287 123.677,59.495 123.126 C 58.855 122.681,56.000 121.165,56.000 121.270 M60.008 123.538 C 60.012 123.627,60.709 124.043,61.558 124.462 C 62.406 124.881,63.010 125.135,62.900 125.026 C 62.552 124.682,60.000 123.369,60.008 123.538 M64.100 125.767 C 64.372 126.045,67.152 127.510,66.900 127.242 C 66.790 127.125,66.070 126.699,65.300 126.296 C 64.530 125.892,63.990 125.654,64.100 125.767 M68.800 128.372 C 68.800 128.473,69.138 128.698,69.550 128.870 C 69.963 129.043,70.593 129.376,70.950 129.611 C 71.308 129.847,71.599 129.963,71.598 129.870 C 71.598 129.776,71.395 129.603,71.148 129.484 C 70.902 129.364,70.273 129.024,69.750 128.727 C 69.228 128.430,68.800 128.270,68.800 128.372 M72.373 130.412 C 72.742 130.637,73.088 130.778,73.141 130.726 C 73.242 130.625,72.136 129.999,71.860 130.001 C 71.772 130.001,72.003 130.186,72.373 130.412 M74.500 131.506 C 75.046 131.950,76.418 132.648,76.528 132.539 C 76.577 132.490,76.051 132.164,75.359 131.815 C 74.666 131.467,74.280 131.328,74.500 131.506 " stroke="none" fill="#fc6a8c" fill-rule="evenodd"></path><path id="path3" d="M18.800 68.941 C 18.800 69.181,20.176 69.891,20.335 69.732 C 20.407 69.659,20.353 69.600,20.214 69.600 C 20.075 69.600,19.700 69.414,19.381 69.186 C 19.061 68.959,18.800 68.848,18.800 68.941 M24.200 72.010 C 24.894 72.481,25.289 72.618,24.800 72.218 C 24.525 71.993,24.210 71.808,24.100 71.808 C 23.990 71.807,24.035 71.898,24.200 72.010 M28.702 74.530 C 29.251 74.822,30.046 75.279,30.469 75.545 C 30.892 75.811,31.278 75.989,31.327 75.940 C 31.437 75.829,28.230 74.000,27.925 74.000 C 27.803 74.000,28.152 74.239,28.702 74.530 M32.800 76.782 C 33.246 77.135,34.000 77.462,34.000 77.301 C 34.000 77.268,33.617 77.048,33.150 76.813 C 32.366 76.418,32.339 76.416,32.800 76.782 M36.500 78.760 C 36.610 78.872,37.150 79.201,37.700 79.493 C 38.250 79.784,38.520 79.875,38.300 79.695 C 37.821 79.304,36.214 78.469,36.500 78.760 M41.800 81.692 C 41.800 81.747,42.160 81.976,42.600 82.200 C 43.040 82.424,43.400 82.563,43.400 82.508 C 43.400 82.453,43.040 82.224,42.600 82.000 C 42.160 81.776,41.800 81.637,41.800 81.692 M45.901 84.002 C 45.969 84.111,46.131 84.202,46.262 84.204 C 46.393 84.207,46.725 84.385,47.000 84.600 C 47.275 84.815,47.588 84.993,47.696 84.996 C 47.936 85.001,46.642 84.121,46.140 83.937 C 45.924 83.858,45.828 83.884,45.901 84.002 M27.880 105.767 C 28.014 105.984,29.784 106.884,29.877 106.782 C 29.919 106.737,29.464 106.454,28.867 106.154 C 28.270 105.854,27.826 105.680,27.880 105.767 M33.200 108.690 C 33.200 108.745,33.470 108.929,33.800 109.100 C 34.130 109.271,34.400 109.365,34.400 109.310 C 34.400 109.255,34.130 109.071,33.800 108.900 C 33.470 108.729,33.200 108.635,33.200 108.690 M45.600 115.582 C 45.875 115.807,46.190 115.992,46.300 115.992 C 46.514 115.994,46.152 115.717,45.500 115.380 C 45.234 115.243,45.268 115.310,45.600 115.582 M47.797 132.550 C 47.796 141.103,47.740 148.303,47.674 148.550 C 47.584 148.884,47.639 149.000,47.885 149.000 C 48.067 149.000,48.410 149.180,48.646 149.400 C 48.882 149.620,49.219 149.800,49.394 149.800 C 49.569 149.800,49.841 149.980,50.000 150.200 C 50.159 150.420,50.448 150.600,50.644 150.600 C 50.840 150.600,51.000 150.686,51.000 150.791 C 51.000 150.896,51.315 151.041,51.700 151.113 C 52.085 151.185,52.400 151.325,52.400 151.422 C 52.400 151.520,52.580 151.600,52.800 151.600 C 53.020 151.600,53.200 151.690,53.200 151.800 C 53.200 151.910,53.380 152.000,53.600 152.000 C 53.820 152.000,54.000 152.090,54.000 152.200 C 54.000 152.310,54.135 152.400,54.300 152.400 C 54.465 152.400,54.600 152.490,54.600 152.600 C 54.600 152.710,54.741 152.800,54.914 152.800 C 55.087 152.800,55.354 152.912,55.507 153.050 C 56.110 153.591,56.324 153.733,56.950 154.010 C 57.308 154.168,57.600 154.366,57.600 154.449 C 57.600 154.532,57.780 154.600,58.000 154.600 C 58.220 154.600,58.400 154.690,58.400 154.800 C 58.400 154.910,58.535 155.000,58.700 155.000 C 58.865 155.000,59.000 155.090,59.000 155.200 C 59.000 155.310,59.180 155.400,59.400 155.400 C 59.620 155.400,59.800 155.490,59.800 155.600 C 59.800 155.710,59.980 155.800,60.200 155.800 C 60.420 155.800,60.600 155.900,60.600 156.023 C 60.600 156.147,60.776 156.201,60.993 156.144 C 61.261 156.074,61.424 156.162,61.507 156.421 C 61.573 156.629,61.801 156.800,62.013 156.800 C 62.226 156.800,62.400 156.890,62.400 157.000 C 62.400 157.110,62.547 157.200,62.727 157.200 C 62.906 157.200,63.199 157.362,63.377 157.559 C 63.760 157.985,65.798 159.000,66.270 159.000 C 66.451 159.000,66.600 159.090,66.600 159.200 C 66.600 159.310,66.694 159.400,66.808 159.400 C 66.923 159.400,67.210 159.580,67.446 159.800 C 67.682 160.020,68.083 160.200,68.338 160.200 C 68.592 160.200,68.800 160.290,68.800 160.400 C 68.800 160.510,68.896 160.600,69.014 160.600 C 69.132 160.600,69.364 160.735,69.529 160.900 C 69.694 161.065,70.002 161.200,70.214 161.200 C 70.426 161.200,70.600 161.290,70.600 161.400 C 70.600 161.510,70.760 161.600,70.956 161.600 C 71.152 161.600,71.441 161.780,71.600 162.000 C 71.759 162.220,72.003 162.400,72.144 162.400 C 72.285 162.400,72.401 162.468,72.402 162.550 C 72.403 162.730,73.372 163.200,73.740 163.200 C 73.883 163.200,74.000 163.280,74.000 163.378 C 74.000 163.476,74.225 163.613,74.500 163.682 C 74.775 163.751,75.000 163.896,75.000 164.004 C 75.000 164.112,75.180 164.200,75.400 164.200 C 75.620 164.200,75.800 164.290,75.800 164.400 C 75.800 164.510,75.980 164.600,76.200 164.600 C 76.597 164.600,76.600 164.467,76.598 148.650 L 76.597 132.700 75.548 132.129 C 74.972 131.815,73.735 131.150,72.800 130.651 C 71.865 130.152,70.875 129.588,70.600 129.398 C 70.325 129.208,69.898 128.990,69.651 128.913 C 69.404 128.836,69.089 128.667,68.951 128.537 C 68.813 128.407,68.025 127.948,67.200 127.517 C 65.737 126.753,65.368 126.550,63.300 125.373 C 62.750 125.060,61.805 124.559,61.200 124.259 C 60.595 123.960,60.070 123.644,60.033 123.557 C 59.997 123.471,59.892 123.400,59.801 123.400 C 59.710 123.400,59.020 123.053,58.268 122.630 C 55.635 121.147,53.841 120.152,51.800 119.043 C 50.975 118.595,49.805 117.953,49.200 117.618 C 48.595 117.282,48.032 117.006,47.950 117.004 C 47.868 117.002,47.799 123.998,47.797 132.550 M39.400 144.400 C 39.400 144.510,39.580 144.600,39.800 144.600 C 40.020 144.600,40.200 144.510,40.200 144.400 C 40.200 144.290,40.020 144.200,39.800 144.200 C 39.580 144.200,39.400 144.290,39.400 144.400 " stroke="none" fill="#ff9b46" fill-rule="evenodd"></path><path id="path4" d="M47.849 100.815 L 47.900 116.664 48.700 117.127 C 49.394 117.529,50.651 118.225,54.981 120.605 C 57.438 121.955,59.029 122.832,60.378 123.580 C 61.190 124.031,61.897 124.400,61.947 124.400 C 61.997 124.400,62.277 124.567,62.569 124.772 C 62.861 124.977,63.865 125.549,64.800 126.043 C 65.735 126.538,67.040 127.239,67.700 127.601 C 68.360 127.963,69.267 128.461,69.716 128.707 C 71.082 129.456,71.496 129.696,71.600 129.800 C 71.655 129.855,72.195 130.149,72.800 130.454 C 73.405 130.758,74.485 131.320,75.200 131.701 L 76.500 132.396 76.552 116.748 C 76.610 99.029,76.726 100.800,75.466 100.166 C 74.935 99.898,74.050 99.424,73.500 99.112 C 72.950 98.800,72.095 98.322,71.600 98.050 C 71.105 97.777,70.115 97.231,69.400 96.835 C 67.148 95.587,65.331 94.610,64.400 94.147 C 63.905 93.901,63.454 93.639,63.397 93.564 C 63.340 93.489,62.800 93.165,62.197 92.844 C 59.712 91.520,57.811 90.480,56.298 89.615 C 55.417 89.112,54.247 88.476,53.698 88.203 C 53.149 87.929,52.655 87.653,52.600 87.589 C 52.517 87.492,48.431 85.247,47.949 85.033 C 47.866 84.996,47.821 92.098,47.849 100.815 " stroke="none" fill="#b473f8" fill-rule="evenodd"></path><path id="path5" d="M104.700 85.361 C 104.370 85.548,103.650 85.972,103.100 86.305 C 102.550 86.637,101.650 87.131,101.100 87.402 C 100.550 87.673,100.055 87.941,100.000 87.997 C 99.945 88.054,99.540 88.286,99.100 88.514 C 98.660 88.742,97.850 89.179,97.300 89.485 C 96.750 89.792,95.760 90.337,95.100 90.697 C 89.952 93.504,87.665 94.768,85.500 95.998 C 85.060 96.248,84.160 96.743,83.500 97.097 C 82.840 97.451,81.895 97.966,81.400 98.241 C 79.545 99.271,78.082 100.071,77.535 100.353 C 76.743 100.761,76.792 99.599,76.848 116.747 L 76.900 132.394 77.400 132.127 C 77.910 131.853,79.663 130.893,81.100 130.099 C 81.540 129.855,82.238 129.464,82.650 129.228 C 84.258 128.310,84.751 128.040,86.200 127.283 C 87.025 126.852,87.745 126.455,87.800 126.400 C 87.855 126.345,88.305 126.090,88.800 125.834 C 90.537 124.936,91.701 124.302,91.800 124.202 C 91.904 124.096,92.996 123.500,94.700 122.618 C 95.250 122.333,95.745 122.055,95.800 122.000 C 95.855 121.945,96.305 121.684,96.800 121.421 C 98.240 120.654,99.830 119.789,100.800 119.244 C 101.295 118.966,102.285 118.424,103.000 118.038 C 103.715 117.653,104.542 117.170,104.837 116.964 C 105.132 116.759,105.447 116.608,105.537 116.628 C 105.744 116.675,106.800 116.243,106.800 116.111 C 106.800 115.981,106.167 116.210,105.850 116.456 C 105.650 116.610,105.600 113.454,105.600 100.824 C 105.600 92.121,105.533 85.005,105.450 85.011 C 105.368 85.018,105.030 85.175,104.700 85.361 M120.150 108.614 C 119.738 108.831,119.400 109.054,119.400 109.109 C 119.400 109.163,119.760 109.024,120.200 108.800 C 120.640 108.576,121.000 108.349,121.000 108.296 C 121.000 108.165,120.999 108.166,120.150 108.614 M108.163 115.207 C 107.758 115.421,107.373 115.682,107.308 115.787 C 107.243 115.891,107.598 115.750,108.095 115.471 C 108.593 115.193,109.000 114.928,109.000 114.883 C 109.000 114.767,108.986 114.772,108.163 115.207 " stroke="none" fill="#31c3ee" fill-rule="evenodd"></path><path id="path6" d="M104.600 117.381 C 104.215 117.582,102.988 118.253,101.873 118.873 C 100.759 119.493,99.746 120.000,99.623 120.000 C 99.501 120.000,99.400 120.090,99.400 120.200 C 99.400 120.310,99.322 120.400,99.226 120.400 C 99.130 120.400,98.162 120.904,97.076 121.520 C 95.989 122.136,94.344 123.043,93.419 123.536 C 92.495 124.028,91.550 124.548,91.319 124.690 C 90.883 124.960,88.830 126.073,87.100 126.977 C 86.550 127.265,86.055 127.549,86.000 127.609 C 85.945 127.670,85.405 127.972,84.800 128.281 C 83.620 128.885,82.159 129.678,80.950 130.370 C 78.986 131.495,78.633 131.692,77.700 132.179 L 76.700 132.702 76.700 148.651 L 76.700 164.600 77.150 164.600 C 77.398 164.600,77.600 164.510,77.600 164.400 C 77.600 164.290,77.724 164.200,77.876 164.200 C 78.027 164.200,78.263 164.065,78.400 163.900 C 78.537 163.735,78.846 163.600,79.087 163.600 C 79.328 163.600,79.718 163.420,79.954 163.200 C 80.190 162.980,80.477 162.800,80.592 162.800 C 80.706 162.800,80.800 162.710,80.800 162.600 C 80.800 162.490,80.960 162.400,81.156 162.400 C 81.352 162.400,81.641 162.220,81.800 162.000 C 81.959 161.780,82.248 161.600,82.444 161.600 C 82.640 161.600,82.800 161.520,82.800 161.422 C 82.800 161.325,83.115 161.185,83.500 161.113 C 83.885 161.041,84.201 160.918,84.202 160.841 C 84.203 160.672,85.178 160.200,85.526 160.200 C 85.662 160.200,85.830 160.020,85.900 159.800 C 85.970 159.580,86.201 159.400,86.413 159.400 C 86.626 159.400,86.800 159.310,86.800 159.200 C 86.800 159.090,86.934 159.000,87.099 159.000 C 87.515 159.000,89.000 158.339,89.000 158.153 C 89.000 158.069,89.160 158.000,89.356 158.000 C 89.552 158.000,89.841 157.820,90.000 157.600 C 90.159 157.380,90.448 157.200,90.644 157.200 C 90.840 157.200,91.000 157.110,91.000 157.000 C 91.000 156.890,91.102 156.800,91.227 156.800 C 91.351 156.800,91.616 156.612,91.816 156.382 C 92.015 156.152,92.278 156.024,92.398 156.099 C 92.519 156.173,92.839 156.090,93.109 155.913 C 93.379 155.736,93.600 155.652,93.600 155.726 C 93.600 155.800,93.768 155.667,93.973 155.431 C 94.179 155.194,94.494 155.000,94.673 155.000 C 94.853 155.000,95.000 154.927,95.000 154.837 C 95.000 154.748,95.315 154.551,95.700 154.400 C 96.085 154.249,96.400 154.052,96.400 153.963 C 96.400 153.873,96.574 153.800,96.786 153.800 C 96.998 153.800,97.290 153.684,97.436 153.542 C 97.581 153.399,97.993 153.163,98.350 153.017 C 98.708 152.871,99.000 152.672,99.000 152.576 C 99.000 152.479,99.160 152.400,99.356 152.400 C 99.552 152.400,99.841 152.220,100.000 152.000 C 100.159 151.780,100.448 151.600,100.644 151.600 C 100.840 151.600,101.000 151.514,101.000 151.409 C 101.000 151.304,101.315 151.159,101.700 151.087 C 102.085 151.015,102.400 150.875,102.400 150.778 C 102.400 150.680,102.580 150.600,102.800 150.600 C 103.020 150.600,103.200 150.510,103.200 150.400 C 103.200 150.290,103.335 150.200,103.500 150.200 C 103.665 150.200,103.800 150.110,103.800 150.000 C 103.800 149.890,103.980 149.800,104.200 149.800 C 104.420 149.800,104.600 149.710,104.600 149.600 C 104.600 149.490,104.770 149.400,104.979 149.400 C 105.187 149.400,105.412 149.258,105.479 149.084 C 105.656 148.622,105.628 116.999,105.450 117.008 C 105.368 117.012,104.985 117.180,104.600 117.381 " stroke="none" fill="#73fd73" fill-rule="evenodd"></path><path id="path7" d="M133.000 101.722 C 132.505 102.007,131.470 102.581,130.700 102.998 C 129.930 103.415,128.542 104.171,127.615 104.678 C 126.689 105.185,125.864 105.600,125.782 105.600 C 125.700 105.600,125.603 105.671,125.567 105.757 C 125.530 105.844,125.005 106.167,124.400 106.476 C 122.851 107.267,121.810 107.832,120.999 108.323 C 120.137 108.846,118.351 109.825,116.500 110.792 C 115.730 111.194,114.875 111.664,114.600 111.837 C 114.098 112.152,112.480 113.050,110.800 113.945 C 110.305 114.209,109.602 114.600,109.239 114.815 C 107.669 115.740,105.680 116.727,105.497 116.671 C 105.389 116.637,105.075 116.796,104.800 117.023 C 104.304 117.434,104.415 117.442,105.350 117.059 C 105.549 116.978,105.600 120.214,105.600 132.845 C 105.600 150.335,105.526 149.387,106.792 148.177 C 107.168 147.818,107.408 147.706,107.471 147.861 C 107.544 148.039,107.572 148.036,107.584 147.850 C 107.593 147.713,107.780 147.600,108.000 147.600 C 108.220 147.600,108.400 147.510,108.400 147.400 C 108.400 147.290,108.535 147.200,108.700 147.200 C 108.865 147.200,109.000 147.110,109.000 147.000 C 109.000 146.890,109.141 146.800,109.314 146.800 C 109.487 146.800,109.764 146.665,109.929 146.500 C 110.094 146.335,110.452 146.200,110.726 146.200 C 111.007 146.200,111.170 146.113,111.100 146.000 C 111.032 145.890,111.117 145.800,111.288 145.800 C 111.460 145.800,111.600 145.710,111.600 145.600 C 111.600 145.490,111.808 145.400,112.062 145.400 C 112.317 145.400,112.718 145.220,112.954 145.000 C 113.190 144.780,113.477 144.600,113.592 144.600 C 113.706 144.600,113.800 144.510,113.800 144.400 C 113.800 144.290,113.980 144.200,114.200 144.200 C 114.420 144.200,114.600 144.120,114.600 144.023 C 114.600 143.926,114.758 143.790,114.950 143.720 C 115.606 143.483,116.198 143.065,116.065 142.932 C 115.993 142.859,116.128 142.800,116.367 142.800 C 116.605 142.800,116.800 142.710,116.800 142.600 C 116.800 142.490,116.980 142.400,117.200 142.400 C 117.420 142.400,117.600 142.310,117.600 142.200 C 117.600 142.090,117.780 142.000,118.000 142.000 C 118.220 142.000,118.400 141.905,118.400 141.788 C 118.400 141.672,118.491 141.632,118.601 141.701 C 118.712 141.769,118.854 141.691,118.917 141.528 C 118.980 141.364,119.384 141.170,119.816 141.097 C 120.247 141.024,120.600 140.883,120.600 140.782 C 120.600 140.682,120.735 140.600,120.900 140.600 C 121.065 140.600,121.200 140.510,121.200 140.400 C 121.200 140.290,121.380 140.200,121.600 140.200 C 121.820 140.200,122.000 140.110,122.000 140.000 C 122.000 139.890,122.126 139.800,122.279 139.800 C 122.432 139.800,122.770 139.577,123.029 139.303 C 123.288 139.030,123.708 138.805,123.962 138.803 C 124.218 138.802,124.369 138.711,124.300 138.600 C 124.232 138.490,124.362 138.400,124.588 138.400 C 124.815 138.400,125.000 138.310,125.000 138.200 C 125.000 138.090,125.180 138.000,125.400 138.000 C 125.620 138.000,125.800 137.910,125.800 137.800 C 125.800 137.690,125.935 137.600,126.100 137.600 C 126.265 137.600,126.400 137.510,126.400 137.400 C 126.400 137.290,126.580 137.200,126.800 137.200 C 127.020 137.200,127.200 137.110,127.200 137.000 C 127.200 136.890,127.380 136.800,127.600 136.800 C 127.820 136.800,128.000 136.730,128.000 136.644 C 128.000 136.558,128.444 136.316,128.988 136.105 C 129.531 135.894,129.930 135.649,129.876 135.561 C 129.821 135.472,129.917 135.400,130.088 135.400 C 130.260 135.400,130.400 135.310,130.400 135.200 C 130.400 135.090,130.535 135.000,130.700 135.000 C 130.865 135.000,131.000 134.905,131.000 134.788 C 131.000 134.672,131.080 134.626,131.177 134.686 C 131.275 134.746,131.466 134.662,131.602 134.498 C 131.738 134.334,131.973 134.200,132.124 134.200 C 132.276 134.200,132.400 134.110,132.400 134.000 C 132.400 133.890,132.580 133.800,132.800 133.800 C 133.020 133.800,133.200 133.713,133.200 133.606 C 133.200 133.500,133.335 133.464,133.500 133.528 C 133.665 133.591,133.800 133.543,133.800 133.421 C 133.800 133.300,133.980 133.200,134.200 133.200 C 134.597 133.200,134.600 133.067,134.600 117.200 C 134.600 99.140,134.762 100.709,133.000 101.722 M102.700 118.198 C 101.930 118.632,100.918 119.185,100.451 119.428 C 99.985 119.671,99.639 119.906,99.684 119.951 C 99.776 120.043,103.281 118.184,103.900 117.716 C 104.567 117.210,104.172 117.369,102.700 118.198 M97.796 120.867 C 97.413 121.123,96.808 121.460,96.450 121.615 C 96.093 121.771,95.800 121.973,95.800 122.066 C 95.800 122.226,98.286 120.941,98.690 120.573 C 99.087 120.212,98.474 120.413,97.796 120.867 M94.152 122.877 C 93.533 123.250,92.751 123.677,92.414 123.826 C 92.076 123.975,91.800 124.165,91.800 124.248 C 91.800 124.399,95.134 122.708,95.490 122.377 C 95.924 121.973,95.212 122.239,94.152 122.877 M91.090 124.575 C 90.986 124.671,90.225 125.098,89.400 125.525 C 88.575 125.951,87.855 126.350,87.800 126.410 C 87.745 126.471,87.355 126.681,86.934 126.878 C 86.512 127.074,86.212 127.279,86.266 127.333 C 86.321 127.388,86.801 127.186,87.333 126.884 C 87.865 126.583,88.975 125.978,89.800 125.540 C 91.371 124.706,91.823 124.400,91.480 124.400 C 91.370 124.400,91.195 124.479,91.090 124.575 M84.597 128.143 C 83.884 128.537,83.047 128.990,82.738 129.150 C 82.428 129.311,82.221 129.488,82.278 129.545 C 82.335 129.601,82.678 129.463,83.041 129.237 C 83.403 129.012,84.195 128.580,84.800 128.278 C 86.074 127.641,86.095 127.628,85.981 127.514 C 85.933 127.467,85.311 127.750,84.597 128.143 M79.500 130.965 C 78.950 131.266,78.290 131.630,78.033 131.773 C 77.776 131.916,77.610 132.077,77.664 132.131 C 77.718 132.185,78.129 131.997,78.577 131.714 C 79.025 131.431,79.461 131.198,79.546 131.196 C 79.631 131.193,79.925 131.015,80.200 130.800 C 80.880 130.268,80.687 130.314,79.500 130.965 " stroke="none" fill="#32e6bc" fill-rule="evenodd"></path><path id="path8" d="M133.300 69.586 C 132.244 70.215,129.980 71.485,126.400 73.455 C 125.795 73.788,124.535 74.484,123.600 75.003 C 122.665 75.521,121.315 76.259,120.600 76.642 C 118.789 77.613,117.337 78.426,117.100 78.602 C 116.990 78.684,116.225 79.109,115.400 79.546 C 113.809 80.389,112.287 81.225,111.300 81.798 C 110.682 82.157,109.041 83.042,106.850 84.197 L 105.600 84.856 105.600 100.713 L 105.600 116.569 106.250 116.272 C 106.608 116.108,107.035 115.894,107.200 115.796 C 107.365 115.698,108.428 115.114,109.562 114.499 C 110.695 113.884,111.955 113.189,112.362 112.956 C 112.768 112.723,113.479 112.337,113.942 112.098 C 114.405 111.859,114.900 111.571,115.042 111.459 C 115.184 111.347,116.065 110.867,117.000 110.392 C 117.935 109.916,118.925 109.376,119.200 109.191 C 119.475 109.006,120.465 108.445,121.400 107.945 C 122.335 107.445,123.865 106.613,124.800 106.096 C 125.735 105.579,127.085 104.841,127.800 104.457 C 128.515 104.072,129.190 103.690,129.300 103.609 C 129.410 103.528,130.400 102.987,131.500 102.408 C 132.600 101.829,133.585 101.275,133.690 101.177 C 133.794 101.080,134.042 101.000,134.240 101.000 C 134.584 101.000,134.600 100.278,134.600 85.100 C 134.600 67.408,134.712 68.745,133.300 69.586 M76.695 116.700 C 76.695 125.500,76.720 129.071,76.750 124.635 C 76.780 120.199,76.780 112.999,76.750 108.635 C 76.720 104.271,76.695 107.900,76.695 116.700 " stroke="none" fill="#7699f2" fill-rule="evenodd"></path></g></svg>